<svg xmlns="http://www.w3.org/2000/svg" role="img" viewBox="-26.46 -26.46 1375.92 913.92"><path fill="#000" stroke-width="1.333" d="M196.0003 861.04457c-11.16441-1.2079-35.03368-5.9266-46.04424-9.1024-30.90973-8.9157-66.27285-31.4365-93.40603-59.4852C18.86454 753.49997.0003 707.55307.0003 654.72106c0-44.7666 16.19728-88.45412 48.98435-132.12127 22.40508-29.84 43.41056-48.75544 75.01565-67.5516 26.43241-15.71986 80.11023-43.78812 163.33333-85.40736 51.31286-25.66116 70.80428-35.11166 112-54.30374 29.93927-13.94796 78.93691-38.06288 110.66667-54.46623 37.8228-19.55328 140.25109-73.13009 155.69596-81.43936 5.30056-2.85167 30.63737-16.26212 56.30404-29.801 25.66667-13.53888 61.06667-32.28515 78.66662-41.65836 37.0599-19.73693 120.09848-61.79447 136.66668-69.21913 45.8223-20.53422 70.7046-29.0748 104-35.69693 13.0998-2.6054 19.5092-3.0506 44-3.05617 52.8122-.012 91.9212 7.5489 127.3334 24.6173 43.5218 20.9772 71.9589 50.84021 92.8488 97.50453 25.9228 57.907 24.5954 131.10155-3.1764 175.14859-14.1132 22.38421-53.7022 64.40816-81.0058 85.98842-13.7956 10.9038-44.9826 32.06494-58 39.35444-3.6666 2.05328-12.9666 7.30374-20.6666 11.6677-23.8977 13.54394-69.8475 38.09648-104.6667 55.92686-48.6775 24.92704-179.09358 89.7392-188.76938 93.81168-4.5672 1.92231-9.5625 4.30756-11.1006 5.30056-2.6274 1.69614-97.1397 47.87423-124.79669 60.9748-15.85634 7.51084-153.84472 73.75078-216.66666 104.00858-18.33334 8.8302-47.25642 23.1836-64.2735 31.8966-45.95757 23.5308-74.81032 36.6341-127.00916 57.6806-23.99264 9.6737-36.01217 13.1501-55.75738 16.1264-11.74392 1.7702-41.52818 2.3465-53.62663 1.0376zm56.74344-13.0378c19.13101-3.103 26.05956-5.4695 73.25656-25.022 32.15216-13.3198 49.08935-21.2433 108-50.5245 57.73193-28.6953 79.13048-39.0978 160-77.78085 8.06667-3.8586 37.46667-17.97408 65.33333-31.36772 27.86667-13.39364 57.26667-27.50708 65.33334-31.36321 135.15855-64.61023 303.65853-148.67911 374.00003-186.59806 32.1977-17.35682 37.3123-20.23268 60-33.73705 41.569-24.74315 61.2577-39.96828 93.3612-72.19592 37.3362-37.48049 52.4352-62.51019 58.7805-97.44124 2.7475-15.12492 2.4076-49.73683-.648-66-7.7981-41.50367-26.7549-79.52739-52.8271-105.96128-20.0946-20.37349-39.7408-32.6774-68.6666-43.0043-31.2665-11.1625-56.1573-14.83515-101.3334-14.9518-28.3004-.0731-33.7727.27279-47.3333 2.99155-25.4621 5.1049-46.6161 12.13124-82 27.2365-19.8179 8.4602-94.65868 45.48824-129.68878 64.16448-11.5379 6.15137-26.0779 13.85877-32.3112 17.12756-14.42302 7.56346-79.74005 42.11028-94.66669 50.07012-68.05789 36.29284-198.20298 103.93906-233.33333 121.28093-35.50725 17.52793-42.07607 20.67015-88.66667 42.41389-29.5251 13.77932-160.13941 79.29046-198 99.30922-70.69528 37.38008-90.48864 51.6591-116.42526 83.9898-32.17554 40.10765-49.49188 79.79738-52.73504 120.87077-4.28615 54.28233 14.43789 104.19961 54.11998 144.28081 34.43656 34.783 73.09731 55.2862 117.04032 62.0707 16.39622 2.5315 54.19967 2.6086 69.41011.1416zm-40.74344-60.9908c-19.44036-10.3415-20.85151-37.8305-2.56329-49.9331 11.6872-7.7342 29.90569-5.0352 38.04528 5.6364 10.74348 14.0854 7.67949 32.9992-6.957 42.9449-7.42583 5.046-20.42259 5.6619-28.52499 1.3518zm20.89605-8.9573c6.34944-2.8829 9.55482-7.0528 10.66094-13.869 1.01754-6.2704-.16067-10.475-4.3206-15.4188-6.96518-8.2777-20.01112-8.3654-27.84628-.1873-5.45211 5.6908-6.2835 16.0971-1.81563 22.726 3.28943 4.8804 10.53863 9.3484 15.09219 9.302 1.46666-.015 5.16989-1.1638 8.22938-2.5529zm161.76199-83.91724c-21.72151-7.11216-31.48737-28.86882-21.65804-48.2503 12.31304-24.27883 47.02029-24.27883 59.33333 0 5.91908 11.67122 4.59926 26.03309-3.35014 36.45529-6.8201 8.9416-24.49275 15.01435-34.32515 11.79501zm16.799-12.97994c15.74187-7.47002 18.00279-27.68983 4.23441-37.86923-6.26621-4.63281-17.90032-5.30717-24.2163-1.40369-8.50618 5.2571-12.54854 15.08609-10.06416 24.47094 3.55965 13.44676 17.95606 20.53904 30.04605 14.80198zm-149.14441-27.28818c-16.23203-3.87108-26.31263-16.14316-26.31263-32.0329 0-14.4097 6.86873-25.59626 19.25919-31.36592 22.0186-10.25304 47.40748 6.11664 47.40748 30.56636 0 21.37209-20.04018 37.677-40.35404 32.83246zm16.26142-12.51586c20.82095-10.76694 13.94643-42.0479-9.24072-42.0479-10.54556 0-18.46898 5.91387-21.50641 16.05192-2.07559 6.92766-.4778 13.78066 4.54739 19.50402 7.09424 8.0799 17.93464 10.76601 26.19974 6.49196zm274.8553 9.21477c-16.57416-3.59435-38.97704-16.37999-49.41228-28.20029-3.10546-3.51764-11.18887-16.29571-17.96315-28.39571-12.77456-22.81752-62.40588-108.9832-74.87983-130-15.53744-26.17836-19.17409-36.69761-19.17409-55.4624 0-13.21987 3.91799-28.94637 9.64693-38.72208 8.81911-15.04867 22.66762-26.53487 46.35307-38.44608 7.7-3.87227 14.6-7.47112 15.33333-7.99744.73334-.52633 13.33334-7.13389 28-14.68347 14.66667-7.54957 30.26667-15.66242 34.66667-18.02856 4.4-2.36613 17-8.97141 28-14.67838 11-5.70698 30.5-15.90078 43.33333-22.6529 12.83334-6.75212 32.33334-16.95226 43.33334-22.667 11-5.71472 29.9-15.59928 42-21.96566 47.82513-25.1631 58.86017-30.26283 69.29104-32.02223 22.71716-3.83175 45.05471 2.85555 61.77251 18.49316 7.5158 7.03017 27.3005 31.18551 44.8417 54.74788C896.8101 301.2543 927.3 357.59634 935.3652 391.79639c5.5845 23.68064-.2155 49.86106-15.5564 70.22006-10.4881 13.91866-21.6298 22.95352-45.80848 37.14614-11 6.45688-28.4 16.70783-38.6667 22.77987-47.83145 28.28909-121.3616 70.25757-176.43596 100.70359-32.29649 17.85402-47.36613 24.71073-61.16057 27.82812-11.63635 2.62969-32.4215 2.67569-44.30744.098zm46.34216-15.28359c5.37433-1.49226 13.47433-4.57356 18-6.84732 18.22478-9.15641 83.88118-45.65645 133.56182-74.25038 9.53334-5.48696 21.53334-12.36712 26.66667-15.28926 5.13333-2.92212 21.33332-12.35392 36.00002-20.95953 81.47648-47.80611 85.19428-50.40259 96.61168-67.47297 9.0482-13.5282 12.3804-24.40867 12.401-40.49295.014-10.71385-.6326-14.59271-4.193-25.15969-8.8138-26.15934-26.7829-60.16608-51.87488-98.17364-17.1775-26.01931-52.756-71.85139-63.3755-81.64012-11.002-10.14124-23.72335-15.13411-38.64511-15.16734-11.89244-.0265-19.37725 2.09594-33.36089 9.45995-9.42572 4.96373-86.95868 45.48865-114.22999 59.70571-7.7 4.01414-27.5 14.33936-44 22.9449-16.5 8.60555-39 20.3082-50 26.00592s-21.8 11.4-24 12.67174c-2.2 1.27173-16 8.48996-30.66666 16.04048-14.66667 7.55052-30.03883 16.00409-34.16035 18.78569-21.22371 14.32387-32.27361 39.56612-27.93869 63.82283 1.6779 9.38902 5.38314 17.80658 14.98237 34.0369 5.46136 9.23404 42.71529 74.0811 70.47068 122.66667 10.47325 18.33333 20.90311 35.32863 23.17747 37.76731 2.27434 2.43868 8.03518 6.99869 12.80185 10.13334 22.30468 14.668 46.30236 18.48366 71.77151 11.41176zM730.0003 531.12877c-68.62944-10.22708-114.91167-25.26898-151.24331-49.15464-14.09709-9.26791-33.59784-28.01023-39.20633-37.6815-10.35451-17.85525-13.57533-36.68237-9.73595-56.91068 4.4104-23.23674 16.34507-40.2315 34.0814-48.53134 7.48903-3.50454 10.49115-4.1067 23.05554-4.62436 17.55826-.72343 28.98493 1.66064 43.99645 9.17945l10.28115 5.14951.82993-4.95616c3.42687-20.46419 9.36749-33.70095 20.65177-46.01576 20.61688-22.49968 54.55603-27.06836 81.92616-11.02839 11.88872 6.96725 23.38356 24.50347 28.02258 42.75044 5.29725 20.83613 5.91733 60.56503 1.44637 92.67088-4.87344 34.99605-22.83525 103.2936-28.51811 108.43651-2.68945 2.43392-3.73681 2.48204-15.58765.71604zm11.69457-32.58995c22.56094-83.29312 26.8844-148.56188 11.9529-180.4462-6.72568-14.36183-17.13224-22.30693-33.41324-25.51003-16.94159-3.33305-32.44706.69478-44.05862 11.44502-12.80904 11.85892-19.53058 28.28372-21.23222 51.88316-.81255 11.26908-1.3361 13.34362-3.77499 14.95866-2.61071 1.72882-3.3908 1.3963-10-4.26242-13.61684-11.65862-32.36817-18.55931-50.50173-18.5852-10.922-.0156-13.70528.46694-20.20718 3.50332-19.05249 8.89742-28.8795 29.21128-27.55301 56.95598.80355 16.80704 6.68575 28.62962 21.66392 43.54215 28.06675 27.94375 72.59768 47.51891 136.09627 59.82599 19.94696 3.86605 32.75102 5.90486 34.66666 5.52002.73334-.14732 3.5959-8.62102 6.36124-18.83045zm-609.0279 99.89487c-17.47572-3.71266-30.50043-22.42414-27.31198-39.23678 1.52742-8.05398 2.84571-10.62566 8.85899-17.28162 5.25301-5.81447 16.24681-10.60574 24.33537-10.60574 22.78452 0 38.87904 22.96943 31.55187 45.02951-4.80789 14.47519-22.93587 25.17476-37.43425 22.09463zm14.66666-13.64419c7.01078-3.23568 10.75742-7.54173 12.59884-14.47995 2.00066-7.53818.007-14.75752-5.61077-20.3165-5.2202-5.16567-8.80483-6.6835-15.78436-6.6835-14.93965 0-25.20025 13.0591-21.27523 27.07788 3.89432 13.90914 17.26494 20.31268 30.07152 14.40207zm151.90796-81.18452c-15.15041-5.35509-23.24129-16.52635-23.24129-32.08977 0-13.94082 7.00229-24.69572 19.74917-30.333 27.25155-12.05194 54.60608 13.75421 44.86946 42.32964-5.51412 16.18305-25.28168 25.78232-41.37734 20.09313zm18.86351-12.1572c10.06087-4.56941 15.66023-15.65595 12.77348-25.29103-3.24479-10.83014-10.69372-16.18477-22.50212-16.17554-15.3654.012-25.57683 15.62714-19.33845 29.57202 5.67048 12.67544 17.0736 17.34172 29.06709 11.89455zm692.1798-91.31711c-31.5711-8.74088-33.2081-53.24402-2.3587-64.12829 18.0295-6.3612 37.8693 3.74092 43.3069 22.05124 2.5946 8.73683 2.6112 11.06016.1388 19.34727-5.0544 16.9418-24.0456 27.4479-41.087 22.72978zm15.2508-11.52165c2.8206-.78344 6.8553-3.55127 9.5913-6.57967 8.2479-9.12938 8.1746-20.48028-.1888-29.24814-9.2647-9.7127-22.1748-9.85778-31.3314-.35211-10.9374 11.3542-7.8533 28.59633 6.2616 35.00655 6.2884 2.85584 8.9046 3.05177 15.6673 1.17337zm149.314-77.79165c-6.7893-2.45696-14.8922-9.93218-17.7368-16.36295-3.679-8.31695-3.6376-21.17467.093-28.88101 6.9582-14.37358 21.7038-21.84579 36.411-18.45095 11.2593 2.59896 17.8861 7.62084 22.5893 17.11837 3.6732 7.41784 4.0419 9.2682 3.5979 18.05986-.4368 8.65049-1.042 10.56738-5.1782 16.40206-8.5464 12.05591-25.5922 17.24755-39.7761 12.11462zm24.3723-12.95196c7.3791-5.05618 10.6066-12.04151 9.6858-20.96291-.422-4.08984-1.8852-8.97136-3.2512-10.84784-2.7256-3.7438-12.7756-9.27428-16.9896-9.34937-13.5045-.24067-26.5264 13.63885-24.1139 25.70181 1.2574 6.28667 6.8158 13.82932 12.4439 16.88619 6.5336 3.54865 15.8344 2.9511 22.225-1.42788zm-156.555-41.19022c-15.0177-2.8606-26.0496-14.85341-27.615-30.0201-2.4979-24.20271 21.6294-42.90626 44.8019-34.73052 19.3999 6.84468 27.9411 29.17722 18.0833 47.28217-6.9928 12.843-21.5924 20.07384-35.2702 17.46845zm17.2725-14.20846c4.9595-2.92966 9.5031-10.07764 10.3314-16.2534 1.9899-14.83539-11.689-27.36494-26.2928-24.08367-11.2326 2.52379-17.3111 10.31245-17.3111 22.18135 0 5.21869.8381 7.75548 4.0083 12.13182 2.2046 3.04336 4.1546 5.54243 4.3334 5.55347.1787.0107 2.7249.91184 5.6583 2.00177 6.0512 2.24847 13.9341 1.62211 19.2725-1.53134zm-168.6059-34.24411c-11.3784-5.5074-16.66658-13.83527-16.66658-26.2464 0-19.89813 17.34998-33.0062 36.36908-27.47719 13.4165 3.90028 22.3198 17.56508 20.4296 31.35544-2.6371 19.23959-23.0685 30.6273-40.1321 22.36815zm21.5943-10.18773c5.9439-3.62423 8.6301-8.29684 8.7344-15.19303.2973-19.66753-24.7278-26.72971-35.0025-9.87783-3.442 5.64519-3.3668 12.05726.2159 18.43187 5.0027 8.90101 17.2314 12.01732 26.0522 6.63899zm155.0724-77.50404c-10.2973-4.66835-14.7129-10.19506-17.2732-21.61962-3.7063-16.53812 10.1996-33.2832 27.7551-33.42186 12.1504-.096 21.9567 6.13109 27.013 17.15352 7.0361 15.3383-2.2143 34.5685-18.9355 39.36409-6.7984 1.94975-11.8972 1.54421-18.5594-1.47613zm21.0907-10.59518c6.0494-3.68818 9.8163-12.31541 8.3043-19.01922-1.5947-7.07099-4.8849-11.52982-10.1225-13.71827-12.574-5.25373-25.0793 1.809-26.8724 15.17691-.8296 6.18558 1.7265 11.7877 7.6543 16.77564 5.277 4.4403 14.4777 4.78361 21.0363.78494z"/></svg>