<svg xmlns="http://www.w3.org/2000/svg" role="img" viewBox="3.20 17.58 93.47 63.84"><style>svg {enable-background:new 0 0 100 100}</style><path d="M5.068 60.829c-.15-.403-.022-.738.223-1.074.276-.379.524-1.465.737-2.359.568-2.376.967-4.762.657-7.218-.06-.474-.291-.885-.399-1.336-.272-1.132.328-2.406 1.549-3.169 1.235-.772 2.095-1.801 2.587-3.185.662-1.865 1.102-3.807 1.95-5.607.058-.123.064-.288.043-.426-.158-1.019.214-1.876.771-2.692.674-.987 1.521-1.8 2.464-2.518 3.012-2.293 6.352-3.995 9.847-5.408 3.459-1.398 7.061-2.255 10.748-2.787.197-.028.551-.049.551-.294 0-.74.521-.896 1.032-1.044 1.448-.419 2.943-.616 4.443-.628 6.108-.049 12.219-.126 18.302.605.249.03.479-.058.497-.308.06-.838.62-1.911 1.442-1.9.822.011 1.83.962 2.183 1.912.508 1.368 1.454 1.953 2.802 2.128.386.05.814.107 1.128.308.448.288.877.228 1.337.171 2.975-.366 5.892-.077 8.731.867.917.305 1.709.871 2.279 1.676.264.372.416.807.058 1.221-.212.245-.497.316-.803.173-.469-.22-.635-.597-.51-1.092.119-.469-.081-.794-.405-1.107-.385-.371-.871-.43-1.351-.505-2.172-.339-4.359-.376-6.548-.239-.857.054-1.712.181-2.52.505-.207.083-.469.211-.378.456.059.161.405-.021.467-.037.062-.016.187-.04.281-.059 2.665-.542 5.323-.491 7.973.158.406.099.809.233 1.105.553.075.08.154.238.123.318-.064.162-.208.048-.303-.001-.965-.499-1.989-.293-3.219-.299 1.237.431 2.278.759 3.293 1.154 3.974 1.544 7.468 3.838 10.441 6.888 3.902 4.005 5.561 8.99 6.192 14.417.044.382.113 1.396.129 1.859.009.251.004 1.636-.018 1.851-.09.879-.094 1.771-.238 2.64-.504 3.038-1.659 5.852-3.114 8.544-1.53 2.831-3.422 5.446-4.936 8.293-1.162 2.186-2.69 4.109-4.804 5.483-1.471.956-3.01 1.451-4.708.568-.138-.072-.277-.074-.428-.045-1.153.224-2.306.008-3.458-.023-.595-.016-1.314-.139-1.586-.649-.551-1.032-1.374-1.037-2.318-.934-.239.026-.489-.031-.732-.068-2.144-.32-4.217-.942-6.303-1.507-2.415-.654-4.733-1.651-7.218-2.053-1.337-.216-2.705-.112-4.037-.313-.633-.096-.875.083-1.192.576-2.174 3.383-5.167 5.549-9.106 6.29-.175.033-.352.063-.531.09-1.301.173-2.935.014-3.197-.023-1.053-.148-2.08-.399-3.042-.843-4.686-2.159-7.336-5.819-7.979-10.932-.04-.319-.032-.537-.479-.506-1.525.108-2.964-.308-4.387-.799-2.24-.774-4.245-2.025-6.333-3.107-.35-.181-.557-.281-.795.166-.351.66-.977.942-1.717.942-1.237-.001-2.291-.467-3.206-1.282-.159-.141-.263-.355-.527-.364-1.556-.047-2.763-.693-3.54-2.072zm41.756-26.051c-1.013.087-2.242.079-3.47.162-4.032.273-8.002.916-11.936 1.814-4.224.964-8.244 2.407-11.863 4.861-2.374 1.609-3.975 3.7-4.457 6.575-.073.435-.151.88-.307 1.29-.397 1.044.134 2.035.123 3.055-.002.184.192.272.327.378 3.566 2.794 7.311 5.23 11.878 6.083.648.121 1.045.057 1.479-.526 3.389-4.556 9.601-6.288 14.869-4.183 4.165 1.664 6.481 4.938 7.807 9.053.118.367.157.648.683.657 2.27.038 4.519.367 6.71.926 2.402.614 4.75.781 7.172.119 1.444-.395 2.957-.575 4.459-.487.609.036.9-.186 1.282-.572 1.604-1.622 3.477-2.805 5.753-3.246.632-.123 1.387-.271 1.845.191.627.633 1.046.393 1.559-.036.11-.092.257-.144.392-.203 1.479-.654 3.053-1.037 4.562-1.6 2.846-1.061 5.364-2.534 6.536-5.586.294-.765.551-1.517.563-2.347.024-1.818-.367-3.563-.878-5.291-.056-.19-.29-.48-.042-.585.275-.116.384.224.484.44.633 1.361 1.203 2.751 1.5 4.226.607 3.016.103 5.547-2.637 7.518-2.114 1.52-4.344 2.719-6.778 3.486-2.051.646-3.63 1.741-4.829 3.503-.864 1.27-1.802 1.413-3.096.577-.327-.211-.599-.288-.944-.088-.317.184-.664.318-.972.514-.503.322-.844.707-.594 1.393.142.391.036.825-.051 1.239-.454 2.169-.922 4.339-.129 6.535.032.088.052.217.01.288-.401.682.126.719.562.837.308.084.616.175.912.293.359.144.525.124.489-.341-.079-1.037.093-2.056.266-3.077.395-2.328.509-4.645-.439-6.891-.063-.149-.202-.344.02-.447.221-.102.36.109.479.254 1.022 1.244 1.68 2.625 1.777 4.273.108 1.841-.47 3.603-.523 5.422-.048 1.652.757 2.268 2.327 1.734.416-.142.817-.341 1.206-.55 1.107-.594 2.097-1.371 3.144-2.058.403-.265.552-.54.438-1.028-.106-.454-.023-.924.111-1.382.592-2.015 1.738-3.741 2.904-5.441 1.889-2.754 3.834-5.467 5.295-8.49 1.2-2.483 1.916-5.044 1.558-7.834-.173-1.347-.53-2.652-.867-3.961-.808-3.133-2.166-6.041-4.161-8.56-3.665-4.627-8.465-7.638-14.111-9.313-1.29-.383-2.586-.748-3.882-1.109-.358-.1-.795-.085-.965.235-.486.914-.551 1.925-.501 2.948.017.339.262.314.46.348.656.113 1.32.12 1.985.11.748-.011 1.443.433 1.568.988.168.749-.122 1.28-.784 1.654-.481.272-.988.422-1.528.493-1.01.133-.977.135-.935 1.126.021.489.178.674.669.741.803.109 1.576.374 2.323.695 3.423 1.47 6.418 3.61 9.266 5.969 2.379 1.971 4.316 4.295 5.555 7.16.505 1.169.906 2.371 1.228 3.6.058.222.11.568-.089.679-.247.138-.285-.224-.33-.358-.603-1.818-1.642-3.396-2.698-4.964-2.94-4.365-7.156-7.236-11.575-9.871-.484-.289-.945-.381-1.465-.188-1.868.694-3.92.413-5.792 1.091-.088.032-.196.006-.293.019-1.313.171-2.505-.331-3.729-.661-2.988-.806-5.982-1.568-9.114-1.535-1.251.013-1.883-.695-1.699-1.846.068-.427-.155-.481-.489-.534-1.781-.278-3.575-.331-5.583-.363zM11.176 46.159c.692.391 1.362.84 1.893 1.469.089.105.151.306.315.262.169-.045.092-.248.116-.379.434-2.285 1.526-4.157 3.347-5.638 3.238-2.634 6.913-4.399 10.893-5.542 8.031-2.306 16.206-2.756 24.476-1.749.503.061.659.022.558-.51-.252-1.326-.491-2.656-.698-3.989-.313-2.01.017-3.779 1.927-4.936.351-.213.649-.513 1.034-.822-.276-.038-.468-.079-.661-.089-4.914-.252-9.829-.463-14.734.15-6.905.863-13.562 2.547-19.683 5.984-1.956 1.098-3.856 2.297-5.255 4.096-.848 1.09-1.893 2.122-1.912 3.645-.021 1.65-.211 3.286-.363 4.923-.106 1.137-.247 2.308-1.253 3.125zM38.46 77.27c3.119.008 6.276-1.335 8.376-3.576.135-.144.463-.258.147-.571-.387-.382-.245-.801-.001-1.211.39-.656.75-1.326.957-2.067.35-1.257.278-2.518-.319-3.649-.458-.868-.445-1.441.398-1.953.436-.265.918-.388 1.412-.339.575.056.587-.216.497-.649-1.567-7.521-10.049-11.421-16.704-7.626-3.609 2.058-5.372 5.303-5.755 9.392-.619 6.628 4.388 12.232 10.992 12.249zm18.301-52.103c-.271 0-.545.031-.811-.005-1.666-.225-3.205 1.812-2.919 3.316.087.458.119.931.251 1.375.568 1.911 1.075 3.834 1.223 5.829.031.413.21.466.557.464.712-.005 1.422-.008 2.135.076 2.266.267 4.401.97 6.499 1.829 1.034.423 2.153.579 3.248.549 1.088-.03 2.06-.574 2.393-1.667.339-1.116.695-2.325-.312-3.364-.11-.113-.234-.347-.188-.454.275-.635.154-1.179-.222-1.734-.116-.171.053-.424.223-.582.15-.139.248-.293.254-.509.021-.694.208-1.357.409-2.016.034-.112.152-.22.041-.33-.128-.126-.265-.048-.395.031-.731.447-1.503.403-2.264.131-.739-.264-1.46-.578-2.183-.883-2.546-1.073-5.136-1.976-7.939-2.056zm-3.98 46.78c1.108.073 2.238.114 3.361.227 3.36.336 6.579 1.37 9.87 2.046 1.657.341 3.294.831 5.021.499.455-.087.689-.217.633-.757-.157-1.507.026-2.992.46-4.443.127-.423.279-.838.406-1.261.025-.085.064-.24-.018-.283s-.184.034-.248.086c-.792.646-1.728.793-2.703.763-2.38-.072-4.66-.714-6.91-1.389-3.438-1.031-6.867-2.039-10.469-2.322-1.062-.083-2.047.095-2.986.575-.475.243-.675.544-.421 1.114.529 1.184.788 2.421.445 3.72-.088.332-.197.66-.256.996-.101.586.13.797.729.734 1.02-.107 2.042-.202 3.086-.305zm-27.274-6.27c.277.036.507.077.536-.354.116-1.731.528-3.392 1.324-4.943.161-.314.144-.389-.245-.389-2.987-.004-5.681-.923-8.158-2.583-1.417-.949-2.692-2.057-3.951-3.194-.143-.129-.273-.383-.548-.163-.295.236-.084.413.033.623.412.743 1.082 1.19 1.796 1.587.162.09.445.119.358.372-.069.201-.305.078-.459.047-1.784-.356-3.454-.95-4.72-2.344-.259-.285-.546-.456-.899-.252-.323.186-.419.493-.366.886.085.643.333 1.23.52 1.84.38 1.24.862 2.463.58 3.808-.083.397.258.513.533.579 2.428.582 4.632 1.748 6.939 2.643 2.178.845 4.372 1.639 6.727 1.837zM9.485 51.717c-.02-1.508-.305-1.94-1.395-2.402-.5-.212-.476.006-.426.35.025.17.039.349.103.505.959 2.331.821 4.705.256 7.086-.192.809-.425 1.62-1.166 2.152-.627.45-.589 1.169.1 1.504.708.343 1.473.344 2.239.22.125-.02.182-.057.223-.214.373-1.439.332-2.863-.128-4.272-.371-1.136-.359-2.266-.043-3.41.136-.495.278-.995.237-1.519zm2.979.399c-.14-1.152-.356-2.335-.976-3.394-.399-.681-.878-1.307-1.644-1.624-.371-.154-.789-.303-1.079.085-.271.363-.097.762.146 1.084.562.744 1.032 1.541 1.504 2.343.371.63.856 1.195 1.298 1.782.161.213.402.324.649.233.195-.071.08-.3.102-.509zm58.319 14.352c.384-.141.587-.463.889-.411.97.167 1.537-.475 2.154-1.017.48-.421.906-.908 1.412-1.292.863-.656 1.801-1.123 2.938-.721.118.042.325.149.28-.122-.038-.227.193-.586-.247-.652-.166-.025-.343-.011-.512.012-2.145.288-4.049 1.121-5.729 2.489-.545.444-.932.972-1.185 1.714zM47.425 22.526c.206.013.411.04.617.037 1.436-.017 2.865.137 4.307.131 2.338-.011 4.695.205 7.016.614.147.026.413.095.439-.111.033-.262-.245-.156-.387-.176-3.549-.498-7.112-.823-10.701-.776-.434.006-.881-.045-1.291.281zm16.852 2.089c-.271-1.036-.517-2.289-1.218-3.378-.187-.291-.337-.747-.768-.686-.401.056-.492.502-.649.829-.113.236-.197.426.185.524.194.05.361.244.515.398.696.693 1.151 1.501 1.231 2.507.02.25.116.589.468.546.268-.033.256-.314.236-.74zm.51 41.606c1.821.333 3.45.579 5.114.494.164-.008.411.022.429-.181.02-.221-.22-.218-.385-.21-1.654.075-3.295-.359-5.158-.103zM9.766 62.882c.804.341 1.439.346 2.038-.124.165-.13.483-.291.329-.482-.143-.176-.49-.405-.769-.141-.418.394-.953.532-1.598.747zm61.318-30.315c.365-.06.947-.143 1.523-.254.233-.045.321-.246.24-.453-.105-.27-.278-.081-.412-.01-.581.309-1.208.375-1.851.386-.156.003-.418-.085-.428.14-.008.192.245.186.416.191.097.003.195 0 .512 0zm-3.774-7.696c.032-.116-.074-.164-.223-.248s-.631-.379-.959-.542c-.141-.07-.346-.33-.457-.067-.075.176-.08.508.23.615.37.127.75.224 1.118.354.148.051.228.016.291-.112z"/><path d="M80.752 70.865c-.008-1.107.52-1.861 1.469-2.37.343-.184.65-.208.935.087.271.28.112.532-.052.79-.354.559-.404 1.2-.478 1.833-.023.195 0 .403-.062.583-.147.426-.178 1.062-.721 1.08-.578.019-.821-.554-.965-1.06-.087-.302-.087-.628-.126-.943zm1.084-5.998c.018-1.252.831-2.334 1.949-2.661.286-.083.579-.119.857.039.428.244.466.628.025.815-1.438.61-1.565 1.803-1.47 3.118.008.117.064.28.008.342-.13.144-.262-.018-.384-.076-.698-.33-1.014-.892-.985-1.577zm-3.87-30.411c.018-.379.124-.777.663-.828.333-.032 1.173.738 1.023.898-.384.409.369 1.307-.615 1.375-.541.037-1.072-.669-1.071-1.445zm5.767 4.617c.003-.641.384-1.114.836-1.006.528.125.767.472.553 1.038-.04.107-.02.24-.012.361.018.29.276.666-.184.804-.395.119-.698-.132-.94-.426-.194-.236-.269-.515-.253-.771zm5.205 4.978c-.315.24.545.879-.254 1.001-.569.087-1.133-.658-1.094-1.33.028-.481.257-.84.766-.788.624.063.668.548.582 1.117zM28.214 66.945c-.044-.49-.014-1.002.143-1.503.053-.168.109-.374.29-.383.221-.011.322.186.373.392.035.143.083.282.12.424 1.026 3.935 3.554 6.442 7.359 7.733.183.062.45.074.473.288.027.24-.214.38-.408.477-1.239.62-2.481.56-3.672-.102-2.259-1.257-4.755-3.53-4.678-7.326zm30.79-31.19c-1.662-.02-2.806-1.981-2.054-3.298.281-.492.723-.734 1.291-.67.415.047.822.153 1.162.419.264.206.754.421.604.728-.157.323-.454-.168-.73-.2-.314-.036-.676-.213-.883.099-.191.287-.012.634.192.876.327.388.658.794 1.285.656.396-.087.474.172.367.49-.22.653-.738.869-1.234.9zm-.668-5.28c-.958-.002-1.894-.625-2.196-1.461-.238-.659-.007-1.43.577-1.923.623-.526 1.497-.497 1.905.064.088.121.188.263.106.402-.068.116-.219.062-.34.042-.507-.085-.815.184-.946.623-.149.495.24.711.602.868.403.175.831.295 1.25.431.192.062.411.121.422.35.011.222-.189.325-.374.404-.321.139-.657.201-1.006.2zm6.523 39.426c-.452.033-1.251-.21-1.282.668-.026.733.498 1.427 1.154 1.428.193 0 .341-.013.426.162.114.234-.078.37-.219.489-.26.22-.577.239-.906.194-1.366-.187-2.325-1.72-1.895-3.04.252-.772.843-1.132 1.65-.996.418.07.802.226 1.127.504.198.17.637.357.452.599-.065.089-.398-.007-.507-.008zM12.748 58.952c.059-.282.096-.63.207-.951.184-.532.478-1.02 1.128-.99.65.03 1.06.462 1.343 1.015.063.124.143.283.003.406-.148.13-.266-.012-.394-.071-.184-.086-.371-.347-.575-.11-.154.178-.043.422.023.633.161.519.5.838 1.051.865.186.009.403-.134.499.132.082.226-.013.426-.152.614-.518.706-1.424.863-2.158.343-.623-.441-.897-1.083-.975-1.886z"/></svg>