<svg xmlns="http://www.w3.org/2000/svg" role="img" viewBox="29.09 3.59 41.69 92.69"><style>svg {enable-background:new 0 0 100 100}</style><path d="M58.97 44.36c.03.39.36.69.75.69h.06c.41-.04.72-.4.68-.81-1.32-15.41-7.9-23.52-8.18-23.86-.26-.32-.74-.36-1.06-.1-.32.26-.36.74-.1 1.06.08.07 6.58 8.11 7.85 23.02z"/><path d="M54.75 86.94V72.36c5.51-.8 9.48-3.26 11.83-7.33 8.5-14.69-6.73-46.68-13.32-57.76-.69-1.17-1.92-1.87-3.27-1.87h-.01c-1.35 0-2.57.69-3.27 1.85-6.54 10.84-21.69 42.24-13.37 57.2 2.34 4.22 6.34 6.82 11.91 7.78v14.64C36.62 88.23 32 93.1 31.78 93.35c-.2.22-.25.54-.13.81s.39.45.69.45h35.34c.3 0 .57-.18.69-.45.12-.28.06-.6-.15-.81-.23-.24-4.84-4.97-13.47-6.41zm-20.1-23.22c-3.38-6.09-2.94-16.18 1.28-29.17 3.4-10.47 8.62-20.83 12.06-26.53.42-.7 1.17-1.12 1.98-1.12h.01c.82 0 1.57.43 1.99 1.14 3.45 5.81 8.7 16.37 12.11 26.97 4.24 13.18 4.65 23.3 1.2 29.27-2.7 4.66-7.83 7-15.27 6.88-7.51-.11-12.68-2.61-15.36-7.44zm12.1 8.72c1.03.12 2.11.19 3.24.21h.49c.96 0 1.88-.04 2.77-.12v14.19c-1.03-.12-2.11-.2-3.24-.22-1.14-.01-2.22.06-3.26.17V72.44zM34.31 93.11c2.4-1.87 7.75-5.17 15.68-5.09 7.88.07 13.22 3.26 15.64 5.09H34.31z"/></svg>