<svg xmlns="http://www.w3.org/2000/svg" role="img" viewBox="0.02 10.77 63.96 42.27"><style>svg {enable-background:new 0 0 64 64}</style><g><path d="M58.1,19c-1.6-1.3-3.5-2.3-5-2.9c-6.6-2.8-14-4.1-21.2-4.1c-8,0-16.6,1.2-23.7,5.1C4,19.4-1.2,25.2,3.5,29.8 c-0.3-0.3,2.9-3.4,3.2-3.6c4.1-3.3,9.3-4.8,14.3-5.6c6.7-1.1,13.2-1.3,19.9-0.3c5.8,0.8,11.8,2.2,16.4,5.9c0.3,0.3,3.5,3.3,3.2,3.6 C64.5,25.9,61.8,21.8,58.1,19z M17.5,20.4c-1.2,0-2.2-1-2.2-2.2c0-1.2,1-2.2,2.2-2.2c1.2,0,2.2,1,2.2,2.2 C19.7,19.4,18.7,20.4,17.5,20.4z M32.6,18.3c-1.2,0-2.2-1-2.2-2.2c0-1.2,1-2.2,2.2-2.2c1.2,0,2.2,1,2.2,2.2 C34.8,17.3,33.8,18.3,32.6,18.3z M46.6,20.4c-1.2,0-2.2-1-2.2-2.2c0-1.2,1-2.2,2.2-2.2c1.2,0,2.2,1,2.2,2.2 C48.9,19.4,47.9,20.4,46.6,20.4z"/><g><path d="M19.5 42.6c-.5-1.7-.4-3.5.2-5.1C14 36.5 3.6 33.8 1.3 28.3L1.6 35c0 0 1 7.6 20 11.9C20.6 45.5 19.9 44.1 19.5 42.6zM11.4 41.6c-1 0-1.8-.8-1.8-1.8 0-1 .8-1.8 1.8-1.8 1 0 1.8.8 1.8 1.8C13.3 40.8 12.4 41.6 11.4 41.6zM44.3 37.6c.2.5.3 1 .4 1.5.5 2.6-.5 4.8-1.4 6.4-.3.5-.6 1-.9 1.5 19-4.4 20-11.9 20-11.9l.4-6.7C60.4 33.8 49.9 36.5 44.3 37.6zM52.6 41.6c-1 0-1.8-.8-1.8-1.8 0-1 .8-1.8 1.8-1.8 1 0 1.8.8 1.8 1.8C54.4 40.8 53.6 41.6 52.6 41.6z"/></g><path d="M42.6,39.4c-0.4-2.2-2.1-3.9-4.5-4.4c-2.1-0.4-4.4,0.6-5.5,2.5c-0.4,0.7-0.7,0.7-1.2,0c-1.1-1.7-2.6-2.6-4.6-2.6 c-3.7,0-6.3,3.4-5.3,7c0.7,2.4,2.1,4.2,3.9,5.8c1.9,1.7,4.1,2.9,6.3,4.1c0.1,0.1,0.4,0.1,0.6,0c1.3-0.7,2.6-1.4,3.8-2.2 c2.2-1.4,4.1-3.1,5.3-5.4C42.3,42.8,42.9,41.3,42.6,39.4z M38.7,44.1c-0.9,1.6-2.2,2.8-3.8,3.8c-0.9,0.6-1.8,1.1-2.7,1.6 c-0.1,0.1-0.3,0.1-0.4,0c-1.5-0.9-3.1-1.7-4.4-2.9c-1.3-1.1-2.3-2.5-2.8-4.1c-0.7-2.5,1.1-5,3.7-5c1.4,0,2.5,0.7,3.2,1.8 c0.3,0.5,0.5,0.5,0.8,0c0.8-1.3,2.4-2.1,3.9-1.8c1.7,0.3,2.9,1.5,3.2,3.1C39.7,41.9,39.3,43,38.7,44.1z"/></g></svg>