<svg xmlns="http://www.w3.org/2000/svg" role="img" xmlns:xlink="http://www.w3.org/1999/xlink" viewBox="-395.69 17.44 49.88 74.75"><defs><path id="a" d="M-394.3 18.9h47.1v71.9h-47.1z"/></defs><clipPath id="b"><use overflow="visible" xlink:href="#a"/></clipPath><path d="M-379.1 43.4l4.6-2.6-2.3-4.1-4.6 2.6 2.3 4.1zm8.6-3.3l-11.2 6.5 9.8 15.2c6.7 10.5 10.5 16.6 11.5 18.3.9 1.7 1.6 3.1 2.1 4.2.1.3.3.7.5 1.2.1.3.3.7.5 1 0 .2.1.3.2.5l9.4-5.4c-.1-.1-.2-.3-.3-.4-.2-.3-.5-.6-.7-.9-.3-.4-.6-.8-.8-1-.7-1-1.6-2.3-2.6-4-1-1.7-4.4-8-10.1-19.1l-8.3-16.1zm18.7 50.8l4.6-2.7-2.3-4-4.6 2.7 2.3 4zm-24.5-67.1c-.1-.3-.3-.5-.4-.7-1.3-1.9-3.1-3.2-5.4-3.8-2.6-.7-5-.4-7.3 1-2.3 1.3-3.8 3.3-4.5 5.8-.6 2.2-.4 4.3.5 6.3.1.3.3.7.5 1l.6.9 3.4 5.9 1.7-1 .9 1.5 13.1-7.6-.9-1.5 1.7-1-3.5-6.1c-.2-.2-.3-.5-.4-.7" clip-path="url(#b)"/></svg>