<svg xmlns="http://www.w3.org/2000/svg" role="img" viewBox="0.23 0.54 4.49 3.86"><path d="M4.48646 3.53619a.79057.79057 0 0 0 .0207-.19217.00556.00556 0 0 0-.01109-.0006.565.565 0 0 1-.04829.17431.695.695 0 0 1-.08877.15388.76591.76591 0 0 1-.12121.12619 1.49769 1.49769 0 0 0-.13509.10379c-.0112.0118-.0071.03873.01316.03736A.44619.44619 0 0 0 4.409 3.7105a.67806.67806 0 0 0 .07746-.17431zm-3.68037.4393a.46979.46979 0 0 0 .13826-.146c.03911-.06206.09084-.1393.17524-.13411a.01569.01569 0 0 0 .00923-.02862.13718.13718 0 0 0-.1824.04354c-.05725.06561-.08456.14574-.16322.1913-.13159.0763-.29383.12754-.3638.2754a.005.005 0 0 0 .00841.00541c.08871-.12219.25854-.12809.37828-.20692z"/><path d="M4.61532 2.72177l-.00524-.01562L4.61 2.70522l-.00131-.00279a.55344.55344 0 0 1-.02414-.05856.00555.00555 0 0 0-.01087.00224.76067.76067 0 0 1-.001.07883l.00186.05239a.53086.53086 0 0 1-.11335.18671.39138.39138 0 0 1-.27734.109.47424.47424 0 0 1-.2102-.04878.49151.49151 0 0 0 .42251-.13326.42689.42689 0 0 0 .07172-.093.9099.9099 0 0 0 .0461-.11619c.00235-.00574-.00672-.00858-.00918-.00295a.49578.49578 0 0 1-.15077.16519.52225.52225 0 0 1-.195.09707.55379.55379 0 0 1-.33988-.03054.57486.57486 0 0 0 .04944.00071.5532.5532 0 0 0 .3023-.09986.81577.81577 0 0 0 .08571-.07861c.00568-.00524-.00186-.01333-.00787-.00879a.595.595 0 0 1-.19256.0862.63869.63869 0 0 1-.41286-.017q-.05211-.03982-.10827-.075a.3657.3657 0 0 0 .06118-.00612.90361.90361 0 0 0 .27978-.12767.56495.56495 0 0 1 .29744-.09183.54612.54612 0 0 1 .29061.0986.02.02 0 0 0 .02562-.0301.50183.50183 0 0 0-.54129-.09991c-.10051.04173-.18655.11062-.28553.15547a.44515.44515 0 0 1-.13831.03725.41636.41636 0 0 1-.10073.00011 2.59772 2.59772 0 0 0-.29045-.1299c-.00115-.006.00016-.01224-.00131-.018l.00645-.00579a.02112.02112 0 0 0-.00268-.0331.05315.05315 0 0 0-.02-.0071L3.1077 2.445a.02921.02921 0 0 0-.05326.004l-.004.01584-.03332.00219c-.01251.00087-.00492.01267-.00421.02272-.05342-.01753-.10783-.03141-.16229-.04556a.03639.03639 0 0 0 .00579-.015.154.154 0 0 0 .04141-.05233.02088.02088 0 0 0-.01863-.027.13545.13545 0 0 0-.05189.01267c-.07369-.14323-.15049-.28493-.227-.42663-.04113-.07615-.0821-.15246-.12531-.22752a1.33756 1.33756 0 0 0-.11646-.18354.04394.04394 0 0 0-.04545-.0667l-.01721.00322-.00011-.00186-.00676-.11714c-.00437-.071-.00836-.14208-.01366-.213C2.26411.97975 2.25406.83 2.23063.68177a.01317.01317 0 0 0-.02595.00191c-.01065.15022-.00776.30082-.006.45132.00082.07282.00317.14558.005.21834l.00268.092-.00071-.00049a.02221.02221 0 0 0-.016-.01087L2.181 1.4326a.02574.02574 0 0 0-.02644.03075.11143.11143 0 0 0 .034.05435.21333.21333 0 0 0-.087.06588l-.09581.10215c-.06211.06621-.12367.133-.18535.19966q-.09.0971-.17874.19534a1.09043 1.09043 0 0 0-.16874.21413l-.00153.00361-.04939-.01256.00186-.0136A.0181.0181 0 0 0 1.394 2.258l-.0154.01874-.02518-.00481a.14749.14749 0 0 0 .00841-.05971c-.00186-.01841-.02267-.01934-.0342-.01065L1.32755 2.201a.15662.15662 0 0 0-.04649.06238.24788.24788 0 0 0-.04867.00273.02185.02185 0 0 0-.00737.03939.31093.31093 0 0 0 .03043.01278 1.37701 1.37701 0 0 0-.03065.0756c-.0136.0366-.02666.07364-.03775.11111l-.00005.0003a3.07076 3.07076 0 0 1-.298-.08724c-.07553-.02786-.1673-.00387-.09055.02224.053.018.10767.03441.16071.05266.07347.02524.14585.05348.21861.08068a.11709.11709 0 0 0-.0047.03463.03019.03019 0 0 0 .04933.01628.1247.1247 0 0 0 .01344-.02944l.03261.012c.02136.00688.04348.01136.065.01786l-.00579.03043c-.00912.05381.07817.05954.08565.00459l.0024-.0124.01147.00311c-.00513.02644-.01049.051.01251.07205a.03239.03239 0 0 0 .03676.007c.026-.01185.02622-.0342.02955-.05741l.02436.00666c.002.03988.0431.04173.06468.01781l.00464.00126c.0154.00355.03114.00513.04654.00852-.00432.10461-.00426.20927-.00841.3141-.005.12526-.01568.2498-.03136.37419-.00776.06113-.01814.12182-.02748.18272a.91563.91563 0 0 1-.29061-.13034.652.652 0 0 1-.23959-.29017.513.513 0 0 1-.00748-.38369c.00175-.00393-.00437-.00645-.00666-.00311a.45042.45042 0 0 0-.08363.29487.55038.55038 0 0 0 .11952.29749l.01295.0159a.56725.56725 0 0 1-.15847-.1104.41454.41454 0 0 1 .02737-.52446c.00328-.00442-.00377-.00879-.00716-.00459a.67645.67645 0 0 0-.15863.27144.34626.34626 0 0 0 .05049.27447.8368.8368 0 0 0 .48293.276 1.04906 1.04906 0 0 0 .25019.075c-.00623.03966-.01147.07954-.01792.11919a.44263.44263 0 0 1-.08112.00317.35142.35142 0 0 1-.17742-.06872c-.00666-.00623-.017.00257-.01071.00961a.30441.30441 0 0 0 .12864.09789.39309.39309 0 0 0 .13148.01535c-.0071.04381-.0142.08757-.021.13143l-.00874.05676a4.90312 4.90312 0 0 0-.561.08751 3.16115 3.16115 0 0 0-.31055.08391.76241.76241 0 0 0-.28269.13312.01341.01341 0 0 0 .00814.02316.9918.9918 0 0 0 .27122-.064c.09325-.0289.187-.05517.28132-.0803a3.86865 3.86865 0 0 1 .57374-.11187l.02-.00082c.00071.01164-.00475.02485.00574.03633a.02394.02394 0 0 0 .02813.00535.07509.07509 0 0 0 .0319-.04315.12725.12725 0 0 0 .00907.052.02911.02911 0 0 0 .04507.00858.13834.13834 0 0 0 .03605-.0655l.04408-.0018c.0018.00852-.00333.01885.00557.02737a.02643.02643 0 0 0 .03059.00584c.01218-.00677.01382-.02283.0195-.03551.0832-.00377.16617-.01125.24948-.01016l-.00027.00109a.03627.03627 0 0 0 .069.02212c.0029-.00819.00339-.017.00617-.02518l.02458.00169a.11565.11565 0 0 0-.00382.03966.02952.02952 0 0 0 .04813.0159.109.109 0 0 0 .02524-.03671.03766.03766 0 0 0 .06637-.00694l.0006-.00251c.05435.00432.10871.00617.163.01054l-.00442.022c-.00464.04042.0531.04671.0667.01229.00382-.00972.00371-.02119.007-.03119l.035.00164a.14329.14329 0 0 0-.0047.047.03152.03152 0 0 0 .05659.01054.142.142 0 0 0 .01316-.05463c.03447.00115.06888.00535.10341.0047.03327-.00066.07167-.0106.10794-.01366a.20071.20071 0 0 0-.00972.04818.03263.03263 0 0 0 .05954.01923.24717.24717 0 0 0 .02425-.0768l.03-.00382c.00109.00983-.00481.02048.00022.02988a.02931.02931 0 0 0 .04534.00863c.013-.01251.01147-.03059.01557-.04621a.41958.41958 0 0 0 .24713-.15246c.00808-.01153-.00568-.02245-.01666-.01857-.0697.02485-.13793.0537-.20818.0768.00339-.02556.00694-.05118.00983-.0768.00858-.07631.015-.15279.01863-.22954.00361-.0728-.01097-.14332-.01439-.21472l.01906.01333c.11389.0886.2456.1878.22337.35053-.00158.01158.01475.01273.01874.00344a.28471.28471 0 0 0-.07631-.29159 1.50148 1.50148 0 0 0-.19141-.172c-.00421-.03851-.00049-.07762-.00792-.11619.03857.01852.07484.04152.11439.058a1.13681 1.13681 0 0 0 .17043.0614.60746.60746 0 0 0 .08653.01338.34414.34414 0 0 0 .07309.00317c.00426 0 .00858.00005.01284 0l.00486-.00158a.30422.30422 0 0 0 .05665-.01213.19594.19594 0 0 0 .13514-.23254.01056.01056 0 0 0-.02081.00158.18985.18985 0 0 1-.1671.16814.37972.37972 0 0 1-.13028-.00393l-.00082-.00011c-.11575-.05337-.23571-.09816-.35228-.15055a.44886.44886 0 0 0 .145-.20676.56631.56631 0 0 0 .01726-.11821 2.69531 2.69531 0 0 0 .26335.10111.026.026 0 0 0 .02185-.04638 1.34432 1.34432 0 0 0-.27422-.12979c.00033-.01038.00448-.02038.00448-.0307 0-.02322-.00492-.05108-.00568-.07762a2.26887 2.26887 0 0 1 .301.13771c.12941.07544.24931.16519.373.24931a.72223.72223 0 0 0 .07833.06162.45276.45276 0 0 0 .58796-.04293c-.011.02578-.02038.05184-.02944.07495a.328.328 0 0 0-.02841.09456.14976.14976 0 0 0 .02655.08549.00893.00893 0 0 0 .01666-.00574.27871.27871 0 0 1 .02218-.103c.0089-.03015.02125-.059.03174-.08855a.46579.46579 0 0 0 .03622-.1482.48631.48631 0 0 0 .02218-.03791 1.94916 1.94916 0 0 1 .00038.07609 3.15971 3.15971 0 0 1-.02464.33071c-.01344.10958-.025.22194-.04818.33a.39514.39514 0 0 1-.1405.25641.01166.01166 0 0 0 .01038.02087.30933.30933 0 0 0 .18393-.20709 1.90357 1.90357 0 0 0 .05883-.35135 2.78144 2.78144 0 0 0 .02655-.36091 1.33559 1.33559 0 0 0-.01016-.17229.75812.75812 0 0 0-.01945-.09487zm-1.83259-.13552l-.00257.01043c-.05255-.01519-.10368-.0348-.15672-.04791-.0401-.00994-.08035-.01928-.12056-.0289a.34644.34644 0 0 0-.0077-.073c.03633.00519.0732.00568.10925.01191.05594.00961.10974.02928.16513.04228a.48932.48932 0 0 1 .01317.08519zm-.28831 1.05559l-.02229-.003c-.04545-.00311-.09084.00552-.13656.0059.01038-.06473.0218-.1293.02955-.19452.01207-.10128.02278-.20321.02764-.30509.001-.021-.00273-.04272-.00169-.06424a1.47769 1.47769 0 0 1 .149.0661c-.00825.12526-.01513.25057-.02868.37544-.00439.03998-.01151.07957-.01697.11941zm-.89641.314a22.09733 22.09733 0 0 0 .02491-.14886l.00836-.00153c-.00858.04671-.01715.09341-.027.13984-.00279.01333-.00645.02709-.01011.041zm-.19568-1.58236l.01513.00339a.5213.5213 0 0 0-.03889.0821c.00716-.02841.01579-.05697.02376-.08549zm.14061.03168L1.55 2.4068c-.00328.02551-.00568.05124-.008.07653-.00328.03562-.00508.0714-.00765.10718l-.01131-.00268.00417-.02983a1.53 1.53 0 0 0 .01573-.15284zm.06643.08177c-.00082-.02278-.00612-.04545-.00754-.0685.03075.00584.06053.01584.0915.02065.14552.02251.29121.04365.4363.06856.0945.01622.1872.03725.28023.05741a.40455.40455 0 0 1-.00912.06724.33077.33077 0 0 1-.06937.12384l-.00792.00568a2.29178 2.29178 0 0 0-.47519-.09663c-.08074-.01245-.15814-.03747-.237-.05637-.00053-.04064-.00047-.08134-.00189-.12187zm.80049-.04938a.36294.36294 0 0 1 .00956.05681l-.00071.0053-.00049-.00011c-.06812-.0159-.13531-.03687-.2037-.05157a3.10056 3.10056 0 0 0-.3147-.04747c.0726.00093.14514.00164.21757.00513.09783.00477.19496.02012.29246.03192zm-.131.50742a.89338.89338 0 0 0-.00475-.10197l.00765.00169h.00754c-.00421.03338-.0065.06714-.00852.10095zm.04514-.09608l.02873.01393c-.00568.02578-.01153.05157-.0148.078a.826.826 0 0 0-.01393-.09193zm-.54762-.11854c-.00273.01633-.00645.03239-.008.04905a.23441.23441 0 0 0-.03977-.05774zm.03917.95093c.02595.00251.05173.00656.07784.00814l.02731.00126c-.03573.00869-.07167.01644-.10734.02529zm.08079-.04681c-.02584-.002-.05135-.00765-.07724-.01022.005-.07467.011-.14929.01387-.224.00459-.12209.00639-.24412.00339-.36627a1.38215 1.38215 0 0 0-.03059-.29826c.04239.00727.08418.01759.12684.02316a2.04945 2.04945 0 0 1 .30683.05058.77862.77862 0 0 0-.01486.12362.48021.48021 0 0 0-.35709.032l.00137.00656a1.06917 1.06917 0 0 0 .21026.02628 1.2939 1.2939 0 0 1 .13837.02529c-.002.02671-.00371.05337-.00606.08008-.00918.106-.02251.21173-.03906.31683-.01256.07959-.03939.15579-.057.23418-.009.00131-.01825-.00027-.02726.0012-.02376-.00492-.04889-.00677-.07189-.00945a3.2951 3.2951 0 0 0-.1199-.01159zm.34677-.19578q.00656-.04335.01191-.08675a4.35473 4.35473 0 0 1-.01338.11466c-.00808.06167-.02136.12247-.03267.1836l-.01784.0008c.01502-.07149.04097-.14026.05195-.21232zm.14536-.45427a.79.79 0 0 0-.00279-.10565 1.57706 1.57706 0 0 1 .15448.077l.00115.00557.00664-.00034.006.004c-.003.02556-.00361.05129-.0059.07691a1.36533 1.36533 0 0 0-.15961-.05749zm.19064-.00284l.00961.00634-.00388.02595zm-.161-.18873c-.009-.0053-.01967-.0047-.02879-.00945a.40909.40909 0 0 0 .09188-.1435.56782.56782 0 0 0 .01114-.058c.01841.00481.03747.0059.05577.01142.07243.0219.14328.04884.21484.07353a.313.313 0 0 1-.01846.07511.43027.43027 0 0 1-.17016.15962 1.89352 1.89352 0 0 0-.15623-.10874zm-.10177-1.24007a1.36645 1.36645 0 0 0 .08079.18562c.03873.0803.0803.15923.12149.23828.07478.14361.14951.28739.22724.42947l-.00808.00645c-.07527-.01622-.15077-.02628-.22719-.03649a.03946.03946 0 0 0-.00259-.04584.20814.20814 0 0 0 .01611-.02961c.007-.01617-.01387-.03234-.02846-.02442l-.01906.01082L2.472 2.266l-.023-.10655c-.016-.07358-.0325-.147-.049-.22047-.0159-.071-.03217-.14181-.04944-.21244a1.46408 1.46408 0 0 0-.048-.17092zm-.624.59608q.09472-.09759.18835-.19633c.06063-.064.12143-.12777.18163-.19212l.0957-.10226a.32254.32254 0 0 0 .0626-.07844.03684.03684 0 0 0 .04081.01835c.00716.07342.02436.14716.03769.2185.01857.09953.03928.19867.05982.29777.01.04829.02032.09652.03048.14481.00492.02343.01043.04687.01491.07047a.12465.12465 0 0 0-.03747.03114c-.05954-.00508-.11843-.01732-.178-.019a2.31521 2.31521 0 0 0-.55374.03359l-.03846-.00421a.44388.44388 0 0 0-.00727-.06626.009.009 0 0 0-.01715-.00093l-.0071.02327-.00257-.001-.04807-.0153a1.16112 1.16112 0 0 0 .17784-.16205zm-.35343.19314l-.00027.00093-.00989-.00109.00076-.00219zm-.07232.1848c.01125-.03622.02245-.07243.035-.10832l.02223-.06271.01038.00235a.813.813 0 0 0-.05069.17267zm.18048-.0396c.00787-.03239.01792-.06506.02453-.09811l.00612.00137a1.42553 1.42553 0 0 0-.03365.16005l-.00307.01777-.0094-.00219c.0054-.02627.00914-.05282.01547-.07888zm.22315.2238l.01759.00322c.00421.04425.0154.08931.02125.13269a1.09021 1.09021 0 0 1 .00814.16623c-.00246.12269-.01311.24543-.0254.36752-.00748.07429-.01972.148-.03026.22189l-.00721-.00219c.01071-.06959.02245-.139.03108-.20883a1.78724 1.78724 0 0 0-.01519-.68053zm-.02458.9477l.00787.00235c-.00464.03015-.00716.06063-.01235.09073l-.00945.00038c.00508-.03106.00901-.06231.01393-.09344zm.04944.29968c.01174-.0567.02229-.11368.03234-.17076l.00295-.00055c-.00426.04834-.00869.09669-.01387.145l-.007.06124-.02125.00076zm.09352.03212l.00295-.03878q.01016-.09021.01819-.18059a1.66532 1.66532 0 0 1 .18218-.04266c.03469-.00519.07063.00049.10592-.00235-.02081.08522-.0366.17158-.06222.25559-.08216-.00125-.16462.00558-.24703.0088zm.32175-.00967c.02666-.084.04277-.17054.06277-.25636l.02266-.00047c-.00426.02059-.00639.04157-.011.06206q-.018.07973-.03939.15863c-.003.0112-.00781.02458-.01224.03715zm.1612.007c.00513-.02529.01229-.04993.01726-.07446.01038-.05075.01983-.10171.02917-.15268l.006-.03955c.03108.00137.06238-.00475.09308-.00208.0218.00191.04326.00656.06506.00918-.004.02567-.00645.05157-.01093.07719-.01109.063-.0248.12619-.03813.18933-.05385-.00321-.10766-.00326-.16152-.00692zm.23271.01c.014-.06091.03037-.12149.04091-.18092.00459-.02589.00847-.05195.0124-.078l.00235.00033c-.0029.0313-.00568.06266-.00923.094q-.00819.07235-.01879.14449l-.00213.0213zm.41079-.125q-.00557.0508-.01229.10149l-.00918.00137c.00513-.02414.01071-.04823.01524-.07249l.00718-.0404zm-.024-.46864c-.004.08025-.00972.16016-.01874.24-.00918.08161-.02032.16295-.03578.24363-.00634.03321-.01371.06626-.02119.0992a1.22859 1.22859 0 0 1-.12821.01868c-.02726.00093-.05441-.00333-.08167-.00355l.00127-.00515q.0118-.07579.02081-.152c.00371-.03141.00464-.06309.00759-.09456a1.73874 1.73874 0 0 1 .09177.02065.20194.20194 0 0 0 .10466.01355.035.035 0 0 0 .01879-.05692c-.03889-.04512-.12515-.05157-.18043-.06233l-.0277-.00371c.00273-.03829.00754-.07642.00918-.11482.00426-.09969.005-.1996.00022-.2993-.00087-.01759-.0029-.03518-.004-.05282.00945.00557.02059.00754.02993.01327.07511.046.14514.09953.21654.151-.00036.01516-.00227.03035-.00304.04521zm.0644-.10843a.51875.51875 0 0 0-.01693-.09915l.02524.01278a3.59641 3.59641 0 0 0-.0083.08639zM2.906 3.18014a.57987.57987 0 0 0-.00513.07642 1.937 1.937 0 0 0-.26275-.17207c-.002-.01693-.00377-.03392-.00694-.05064l-.00672-.02229c.05572.03775.11122.076.168.111.02027.01251.04288.02048.06358.03223.00224.00442-.002.01147.004.01147l.01211-.00326zm.13351-.30984a.4726.4726 0 0 1-.06861.14836.43525.43525 0 0 1-.07407.074 1.99657 1.99657 0 0 1-.24511-.13711l-.02158-.015a.34492.34492 0 0 0 .1883-.15809.40523.40523 0 0 0 .02389-.08846c.03469.01256.0703.02267.10472.03583.03381.01295.06806.02524.10171.03906a.54991.54991 0 0 1-.00923.10141zM3.058 2.667c.00022.006-.00175.01191-.00164.01792l-.02283-.01082c-.056-.02092-.11455-.03447-.17163-.05244.00071-.00841.00639-.01573.00656-.0242a.58415.58415 0 0 0-.01174-.07418c.06484.01748.13067.03.19392.05255.00325.0309.00636.06242.00736.09117z"/><path d="M4.23725 3.50036a.014.014 0 0 0 .00727-.015c-.0071-.02922-.03687-.03949-.06031-.05386a.72662.72662 0 0 1-.08434-.06282.43512.43512 0 0 1-.13351-.1771c-.00164-.00448-.00934-.00186-.008.00273a.585.585 0 0 0 .10073.20441l.00142.00169-.03168-.0083a1.27317 1.27317 0 0 0-.17109-.0325 1.304 1.304 0 0 0-.34917.0236c-.00388.0006-.0035.00716.00055.00694a1.88712 1.88712 0 0 1 .33813.0301c.05725.00765.11433.01677.17071.02939a1.37306 1.37306 0 0 0 .13525.03c.02479.01657.05613.03574.08404.02072zm.12952-.17601a.41074.41074 0 0 0-.05413-.0124.1566.1566 0 0 1-.05872-.01562c-.005-.00333-.00989.00437-.005.00776.01808.01262.0289.03114.04627.04479a.14539.14539 0 0 0 .05452.02846.02785.02785 0 0 0 .01706-.05299zM.80309 2.09183A.21959.21959 0 0 1 .88432 2.14a1.62233 1.62233 0 0 0 .13777.1098.40177.40177 0 0 0 .16109.05719c.00475.00055.00874-.00574.00437-.009-.051-.03846-.10171-.07735-.14935-.12007A.621.621 0 0 0 .90109 2.057a.33629.33629 0 0 0-.17054-.01535c-.07118.00872-.14034.02835-.21212.03341a.01244.01244 0 0 0-.00143.02452.80233.80233 0 0 0 .19152-.01022.319.319 0 0 1 .09457.00247z"/><path d="M.48577 2.192c.02409-.00359.04829-.00611.07223-.01a.64849.64849 0 0 0 .14148-.03583.00521.00521 0 0 0-.00071-.00956.6935.6935 0 0 0-.1824-.00612c-.042.003-.07866.00808-.08724.05561a.01194.01194 0 0 0 .0171.01125.11468.11468 0 0 1 .03954-.00535zm.24308.00941a1.24336 1.24336 0 0 0-.14585.02086c-.04332.00841-.09281.009-.12078.04725a.01813.01813 0 0 0 .00961.02677c.04135.01644.08227-.00841.12061-.02333A1.27787 1.27787 0 0 0 .731 2.2119c.00446-.00235.0037-.0109-.00215-.01049zm-.21632.15038l-.00432.00656a.08719.08719 0 0 0 .027.0413.43907.43907 0 0 1 .04485.05992.54841.54841 0 0 1 .03217.06184c.00841.019.01093.03179.0325.03813a.01975.01975 0 0 0 .022-.00792c.02491-.03709-.025-.09718-.04823-.12515C.59589 2.39926.55214 2.347.51253 2.35179zm.21605.19108a.1484.1484 0 0 0-.04927-.16721.022.022 0 0 0-.0313.02808.75583.75583 0 0 1 .062.13815c.00158.00901.0166.0106.01857.00098z"/></svg>