<svg xmlns="http://www.w3.org/2000/svg" data-name="Layer 1" x="0" y="0" viewBox="1.27 0.19 2.45 4.61"><title>bdsm_adult_bondage_erotic_fetish_shibari</title><path d="M2.265,4.443a.01081.01081,0,0,0-.01865.00656A.19241.19241,0,0,0,2.28,4.551a.16493.16493,0,0,0,.07784.07572.02183.02183,0,0,0,.0259-.03014.43689.43689,0,0,0-.06136-.07434C2.30257,4.49645,2.2858,4.46788,2.265,4.443Z"/><path d="M2.40483,4.50024a.36432.36432,0,0,0-.0551-.05362.01272.01272,0,0,0-.01914.01312.59288.59288,0,0,0,.03409.08721.245.245,0,0,0,.05091.08267c.01337.01179.04173.00824.04084-.0144a.16242.16242,0,0,0-.021-.06995.51908.51908,0,0,0,.11661.02945.51164.51164,0,0,0,.06353.00962c.026.00183.05239-.00291.07809.001.00533.00079.00651-.00745.00163-.00908a.62124.62124,0,0,1-.06482-.03369A.58844.58844,0,0,0,2.563,4.51726l.00035-.00266a.19371.19371,0,0,0-.01366-.07883c-.0034-.00972-.01791-.00686-.02072.00158a.19612.19612,0,0,0-.00671.0296l-.00276-.0034a.15983.15983,0,0,0-.0222-.02328L2.4806,4.42778a.57934.57934,0,0,0,.13166-.14009A.30183.30183,0,0,0,2.60969,4.053a.016.016,0,0,0-.03142.00641,1.025,1.025,0,0,1,.00656.11666.13235.13235,0,0,1-.0222.09254.56136.56136,0,0,1-.14118.14157.02441.02441,0,0,0,.00335.04449.09013.09013,0,0,1,.05012.03433A.18362.18362,0,0,0,2.43,4.48416.02884.02884,0,0,0,2.40483,4.50024Z"/><path d="M1.99462,1.23519a.05138.05138,0,0,0-.01238.06171.03064.03064,0,0,0,.05273.00286.16886.16886,0,0,1,.01189-.025c.007-.00952.01865-.01519.02585-.02511a.06857.06857,0,0,0,.01248-.02674l.0001-.00883.00217-.01036c.00222-.02461-.02022-.04139-.03764-.054a.13872.13872,0,0,0-.0734-.03236.02463.02463,0,0,0-.01944.0405.28473.28473,0,0,0,.06048.0512l.00666.00508-.00015.0001A.11178.11178,0,0,0,1.99462,1.23519Z"/><path d="M2.26153,1.36507c.06876-.03719.16194-.07961.17413-.166.00237-.01662-.02156-.01874-.02723-.005a.21819.21819,0,0,1-.13817.1065c-.03389.01327-.0664.02866-.09964.04331-.03137.01381-.08055.033-.10882.002a.01008.01008,0,0,0-.01722.00873C2.07177,1.46235,2.19958,1.39861,2.26153,1.36507Z"/><path d="M1.95447.89976a.19524.19524,0,0,0,.21684.0404c.03058-.013.01292-.061-.01874-.05431A.54139.54139,0,0,1,2.0512.90169C2.01973.90233,1.98855.89582,1.95723.894Z"/><path d="M2.20752.81324A.19184.19184,0,0,0,2.0252.793.02516.02516,0,0,0,2.035.84032,1.33163,1.33163,0,0,1,2.19918.839C2.21319.84106,2.21906.8201,2.20752.81324Z"/><path d="M1.91155,1.05219A.11208.11208,0,0,0,1.978,1.073a.01424.01424,0,0,0,.00839-.026.11185.11185,0,0,0-.0661-.0219A.01486.01486,0,0,0,1.91155,1.05219Z"/><path d="M1.77842.89444A.01191.01191,0,0,0,1.79973.88383c-.04311-.1214.05653-.21507.1611-.25991a.33378.33378,0,0,0-.05618.10842.13443.13443,0,0,0,.002.11123c.00513.00671.01707-.00123.01243-.00844C1.89912.804,1.94667.745,1.96349.72021a.51008.51008,0,0,1,.073-.08494A.39783.39783,0,0,1,2.0986.58782.49857.49857,0,0,0,2.22247.55274.20539.20539,0,0,0,2.329.42859C2.33227.42035,2.32013.41537,2.3154.42217a.16353.16353,0,0,1-.08593.055L2.22212.47673A.33123.33123,0,0,0,2.124.49957L2.11365.50115A.65029.65029,0,0,0,1.8899.56221.23855.23855,0,0,0,1.77842.89444Z"/><path d="M2.05712.34532a.46533.46533,0,0,0-.25887.22424c-.00316.00572.00449.01361.00937.008A.56626.56626,0,0,1,2.12539.4054C2.231.38532,2.40779.44215,2.464.31681L2.46545.31133A.03292.03292,0,0,0,2.46027.27769.19953.19953,0,0,0,2.159.2663c-.00434.00567.00316.01322.00908.01016A.18141.18141,0,0,1,2.306.26541a.311.311,0,0,1,.08193.04311.44347.44347,0,0,1-.15055.01223A.50374.50374,0,0,0,2.05712.34532Z"/><path d="M1.91308,3.73162,1.909,3.7475c-.03187.00321-.06373.00607-.0954.0108a1.63213,1.63213,0,0,0-.305.07463.37493.37493,0,0,0-.19578.13417.29673.29673,0,0,0-.02743.23465A.00567.00567,0,0,0,1.29619,4.201c.01559-.08578.00774-.17245.09022-.23426a.66565.66565,0,0,1,.23431-.09362A2.05563,2.05563,0,0,1,1.88891,3.825,1.2742,1.2742,0,0,0,1.8566,3.95q-.01887.12334-.02762.24787c-.00128.01756-.00079.03517-.00183.05278l-.07661-.02521a2.12871,2.12871,0,0,0-.23-.06857.23368.23368,0,0,0-.18779.0222.00822.00822,0,0,0,.005.01416c.03561.00409.07079.00326.10615.0108a.89466.89466,0,0,1,.10063.02974c.07266.02476.14512.05022.21808.07424l.06181.02c-.00123.03635-.00409.07266-.0038.10906a.69661.69661,0,0,0,.011.08953,1.8384,1.8384,0,0,1-.209-.09614c-.11173-.065-.21211-.14631-.3192-.21813a.00573.00573,0,0,0-.00814.00735,1.08982,1.08982,0,0,0,.56248.41129c.0035.00607.003.01411.00829.01924A.03185.03185,0,0,0,1.908,4.64689a2.50825,2.50825,0,0,0,.716.153,1.40546,1.40546,0,0,0,.40942-.0257.43475.43475,0,0,0,.09279-.00183.14079.14079,0,0,0,.09935-.0515c.03907.06437.18473-.01909.23608-.05263a.20932.20932,0,0,0,.11114-.19933L3.575,4.44238a.36765.36765,0,0,1,.00834-.07123c.006-.023.02358-.04351.0223-.06743l-.006-.00513c-.04079.00449-.05781.06038-.06353.09446l-.00059.00385a.26293.26293,0,0,0-.05589-.04627l.00128-.00128c.0405-.04938.10448-.07074.14364-.1214a.11753.11753,0,0,0,.019-.03557.21336.21336,0,0,0,.057.00686.02531.02531,0,0,0,.00908-.04913c-.0221-.0074-.04469-.01283-.067-.01939a.09831.09831,0,0,0-.02353-.03561.01541.01541,0,0,0-.02516.01707l.00089.00232A.06188.06188,0,0,1,3.558,4.0819c-.00449-.01194-.02225-.00878-.0258.00192-.01317.03966.01667.06955.05618.089a.2461.2461,0,0,1-.06319.06546.24071.24071,0,0,0-.08366.09254v.0001A.1984.1984,0,0,0,3.409,4.32069l.01209-.02309A.48657.48657,0,0,0,3.44974,3.975V3.96632c-.019-.06718-.04859-.13062-.07394-.19558a.10283.10283,0,0,0,.03216.00335.02344.02344,0,0,0,.01608-.033l-.00015-.0003c.01731-.0002.03458-.00054.05189-.0002.01209.00025.028.00207.04272.0038.00681.03867.01322.07735.01786.11631a1.14771,1.14771,0,0,0,.02126.1538c.0034.013.026.01751.029.00153a.90689.90689,0,0,0-.0071-.261l-.00281-.01539c.01731-.00261.03616-.00276.04647-.01692a.02822.02822,0,0,0,.00153-.02792.06517.06517,0,0,0-.05658-.033l.01455-.00868a.03378.03378,0,0,0-.00429-.05308c-.00725-.00508-.01889-.00261-.02787-.005C3.54351,3.55937,3.54,3.523,3.531,3.4875c-.02235-.08864-.05066-.17541-.08085-.26168a1.068,1.068,0,0,1-.07675-.26237c-.00765-.09338.00656-.18779.00789-.28127.00128-.09382-.00232-.18725-.00917-.28077-.007-.09505-.01682-.18976-.02817-.28442-.00543-.04533-.01287-.09007-.02052-.13506-.00365-.02126-.00291-.04208-.00548-.06334a.15909.15909,0,0,0-.01677-.04809A.86442.86442,0,0,0,2.936,1.52006c-.005-.003-.0113.00365-.00686.00809a1.61584,1.61584,0,0,1,.29.33365c.01722.03083.02876.063.04859.09209a.30519.30519,0,0,1,.0294.15287c.00454.09022.00819.18054.01036.27076.00222.093.00261.18621-.00044.2791-.003.09047-.01391.18118-.01209.2717a.65386.65386,0,0,0,.05895.24748,2.31058,2.31058,0,0,1,.09313.25271c.01539.05258.02526.10665.03719.16017-.024.00326-.04864.00789-.06748.01149a.44534.44534,0,0,0-.09244.03463c-.007-.01633-.01174-.03354-.01884-.04982a3.48426,3.48426,0,0,1-.14034-.37316,2.36078,2.36078,0,0,1-.081-.38836c-.00878-.06674-.01662-.13373-.02269-.20076-.00335-.03675-.00439-.07562-.00745-.114.04869-.12159.09708-.24324.14275-.36567.01218-.03261-.039-.05919-.05594-.02728-.04553.08558-.07374.17921-.11064.26908-.01283.00631-.02723.00883-.03843.01529a.54562.54562,0,0,0-.094.07049c-.02511.023-.04953.047-.07651.06783-.00942.00725-.01929.01327-.02866.01948-.00069-.0401-.00109-.08021-.00089-.12031.00069-.11844.00725-.23672.0077-.35516a1.21454,1.21454,0,0,0-.02614-.28709.04658.04658,0,0,0,.01258-.01268l.011-.01731a.072.072,0,0,0,.03576-.03774.02251.02251,0,0,0-.00118-.02042q.02923-.05224.05367-.10689a.75986.75986,0,0,0,.03379-.104l.00626-.0039a.04821.04821,0,0,0,.01495-.06018l.00444-.0109c.002-.00444-.0036-.0076-.00725-.00617L2.92627,1.42a.03819.03819,0,0,0-.01667-.003.36915.36915,0,0,0-.078.01559.21037.21037,0,0,1-.0588-.09155.26736.26736,0,0,1,.00982-.137.77715.77715,0,0,0,.13758-.06082A.18986.18986,0,0,0,3.01526.94273.271.271,0,0,0,3.14154.82992.3891.3891,0,0,0,3.19812.5855.32588.32588,0,0,0,3.0856.36589.18283.18283,0,0,0,2.87877.33748a.32285.32285,0,0,0-.0514-.08963A.1445.1445,0,0,0,2.69024.19679.23833.23833,0,0,0,2.4693.3319a.00609.00609,0,0,0,.00977.00636A.30693.30693,0,0,1,2.71194.263a.09353.09353,0,0,1,.07483.05554.138.138,0,0,1,.00439.16752.11864.11864,0,0,1-.085.02585c-.01786.00035-.03433.004-.03206-.01845A.05428.05428,0,0,1,2.7.4602a.01785.01785,0,0,0-.01149-.0333.07635.07635,0,0,0-.06916.07448c-.00286.05332.03709.07177.08322.07764A.16217.16217,0,0,0,2.89268.39845.229.229,0,0,0,2.88691.36426a.29181.29181,0,0,1,.15829.0663A.26893.26893,0,0,1,3.122.60113a.30782.30782,0,0,1-.04045.17723.248.248,0,0,1-.06886.07675.15714.15714,0,0,0-.01376-.133l-.00454-.006C3.04017.6511,3.02947.542,2.934.53365a.03021.03021,0,0,0-.01781.0552.04636.04636,0,0,1,.01835.06521C2.929.66388,2.892.74335,2.69231.68465A.15885.15885,0,0,1,2.59139.55491.39153.39153,0,0,1,2.58162.44772a.136.136,0,0,1,.0292-.09959.00523.00523,0,0,0-.00316-.009c-.03537-.00094-.05609.033-.06916.06171A.31.31,0,0,0,2.5136.55763a.23727.23727,0,0,0,.17867.217.34095.34095,0,0,0,.26819-.0255.14626.14626,0,0,1-.007.09456A.20629.20629,0,0,1,2.85731.9488a.321.321,0,0,1-.27367-.036.42645.42645,0,0,1-.16993-.503.00812.00812,0,0,0-.0145-.00686.4046.4046,0,0,0,.09071.54438.4502.4502,0,0,0,.08455.05406.11934.11934,0,0,1-.01386.037.29786.29786,0,0,1-.05816.065.01337.01337,0,0,0,.00809.023A.12265.12265,0,0,0,2.632,1.025a.42878.42878,0,0,0,.13669.02235A.23957.23957,0,0,0,2.96766.9483l.00715.00054a.287.287,0,0,1-.1838.17028c-.05969.02708-.18419.08006-.15958.16707a.01416.01416,0,0,0,.02545.00474.20168.20168,0,0,1,.076-.06437l-.00942.019a.19636.19636,0,0,0-.00814.10729.23285.23285,0,0,0,.04257.09446l-.00474.00094a1.27942,1.27942,0,0,1-.15888.01366c-.05253.00143-.105,0-.15755-.00148L2.42091,1.459a.18468.18468,0,0,0-.04213-.08055c-.0035-.00424-.01125.00074-.00819.00557a.10093.10093,0,0,1,.00414.05318.02176.02176,0,0,0-.02733.01139l-.0003.001-.045-.00705a.02754.02754,0,0,0-.026.03956.12753.12753,0,0,0,.08711.0548l.00439.00483a.10933.10933,0,0,1-.00794.043.24178.24178,0,0,1-.02185.02905l-.03256.01657a.29705.29705,0,0,0-.16505.16885.518.518,0,0,0-.01652.17719.90918.90918,0,0,1-.1726.1245l-.00454-.00335a.0221.0221,0,0,0-.038.01342c-.00059.00587.00464.0108.00587.01643-.008.00419-.01342.01164-.02165.01559-.0405.01953-.1025.03261-.12741.07345a.353.353,0,0,0-.02639.14167.42221.42221,0,0,0,.0547.28728.25766.25766,0,0,0,.13309.089l-.01549.0111a.03067.03067,0,0,0,.034.05007c.02289-.01041.04474-.02294.067-.03468a1.17509,1.17509,0,0,0,.083.33114c.03369.09047.07251.1794.10157.27155l.00326.01431a.29394.29394,0,0,0-.03226.00705.03709.03709,0,0,0,.01445.06975l.035-.00212a.249.249,0,0,1-.00937.152c-.00908.01953.02151.039.03576.02313a.21235.21235,0,0,0,.05051-.10778c.021.09634.03675.19327.0515.29064-.00488.0002-.00972-.00148-.0146-.00109-.02457.00212-.02856.03862-.00937.05026a.24238.24238,0,0,0,.03379.00967l.00927.05786a.03215.03215,0,0,0,.00839.05253l.00483.03014a.29008.29008,0,0,1,.01075.17033c-.00217.00434.00434.00848.00641.00409a.26445.26445,0,0,0,.033-.09219.63087.63087,0,0,0-.0035-.11074.4287.4287,0,0,0,.15489.00173c.01791-.00414.01036-.02082.01411-.034.00222-.003.00681-.00192.00755-.00656l.00069-.01322c-.00109-.00434.00686-.00715.00459-.011a.15991.15991,0,0,0,.0547-.01016c.034-.01371.022-.05845-.00538-.07039l-.01046-.0037.00123-.00192.03221.01154c.03714.01544.07409.03093.1103.04859.07049.03438.13442.082.205.11538l.00671.00044a1.09513,1.09513,0,0,1,.01633.12953.38575.38575,0,0,1-.03852.20713.25869.25869,0,0,1-.14305.11242A.30806.30806,0,0,1,2.629,4.44046c-.01578-.00567-.03211.01613-.019.02856a.2458.2458,0,0,0,.17674.0662.13745.13745,0,0,0,.03552.18345.46839.46839,0,0,1-.20752-.0477.22959.22959,0,0,0-.1468-.06477.00621.00621,0,0,0-.0034.01021,1.49048,1.49048,0,0,0,.1139.09787A2.57207,2.57207,0,0,1,2.27781,4.67a2.48519,2.48519,0,0,1-.35674-.10226c-.00128-.01065.00266-.02042.00163-.03137-.00375-.03926-.00562-.07868-.00617-.11809-.00025-.01978.00326-.03941.00375-.05919.022.00705.04375.0147.06585.02136.03744.01135.07508.02244.11286.0327.0145.00395.0292.00839.044.01179-.01929.06388.061.12672.10778.15538.01677.01026.03848-.01263.02328-.02733a.35606.35606,0,0,1-.06235-.07488c-.01514-.02595.00025-.03522.01766-.05776a1.44825,1.44825,0,0,0,.11474-.17827.00868.00868,0,0,0-.013-.0111c-.03616.03019-.07271.05939-.10591.093-.01475.015-.03384.03187-.05026.05022a.59225.59225,0,0,0-.063-.02535c-.039-.01455-.078-.0293-.1173-.043-.023-.008-.04637-.01514-.06955-.02289.00261-.0367.00187-.07365.007-.1101a1.98,1.98,0,0,1,.05071-.23613l.00622-.02506a.71783.71783,0,0,0-.00178.09456c.0002.00572.00957.00631.01016.00049a.39346.39346,0,0,1,.09037-.18128.89649.89649,0,0,0,.1138-.14157c.00957-.01939-.02156-.03428-.03774-.02156-.0223.01756-.04459.03492-.06546.05332-.02146.00345-.04272.0076-.06383.01223L2.03941,3.708a.01047.01047,0,0,0-.01726-.00829.33462.33462,0,0,0-.02383.03512c-.011.00207-.02165.005-.03285.00631l-.01973.00222V3.74218C1.9449,3.72693,1.92171,3.71366,1.91308,3.73162Zm1.31034.87655L3.214,4.57882a.37292.37292,0,0,0-.0623-.1139.32684.32684,0,0,0,.08154-.00557.23221.23221,0,0,0,.04617-.0145A.51739.51739,0,0,0,3.22342,4.60817ZM3.50508,4.467c.0329.07986-.06156.13876-.119.17072-.02634.0147-.07187.046-.10309.04267l-.003.00035.00079-.0112c.00173-.00809.00153-.017.00252-.02526.00247-.02037.006-.04065.01026-.06072a1.59257,1.59257,0,0,1,.06748-.197l.00937-.01036A.18618.18618,0,0,1,3.50508,4.467Zm-.23214-.1027a.34054.34054,0,0,1-.21157.0256l-.01263-.00622a.4088.4088,0,0,0,.0439-.22844c-.00178-.03379-.02437-.05806-.03231-.08815.00987.00829.02644.01041.03083-.00237a.24608.24608,0,0,0,.01041-.10329l.00908-.01115c.01889-.022.039-.04282.05988-.06274a.72707.72707,0,0,1,.10364-.0845.48329.48329,0,0,1,.11257.32063A.31241.31241,0,0,1,3.27295,4.36435Zm-.34263-.77558.04795.01672c.048.018.09471.03892.14142.05993l.07409.0331a.69325.69325,0,0,1,.04287.05574.54286.54286,0,0,0-.09338.05653.70115.70115,0,0,0-.0621.05717.74662.74662,0,0,0-.0295-.07537.5415.5415,0,0,0-.07439-.11913.3741.3741,0,0,0-.05007-.05031A.0433.0433,0,0,0,2.93032,3.58877Zm-.04479-.064-.00439-.00533.017-.03152a.632.632,0,0,1,.04809-.06965c.01722.02373.02757.05174.04543.074.02057.0257.04612.04607.06847.0697a.68887.68887,0,0,0-.06723-.02378A.25237.25237,0,0,0,2.88553,3.52474ZM3.089,3.22049c.04193.12687.10176.249.15.37366l.0184.04632-.05549-.02387A2.0641,2.0641,0,0,1,2.999,3.41617c-.00952-.011-.01712-.02447-.02639-.03606A.25438.25438,0,0,0,3.001,3.339a.02345.02345,0,0,0-.02688-.02989.14565.14565,0,0,0-.037.02239.4152.4152,0,0,1-.0774-.17733.68012.68012,0,0,1,.06679-.32344c.02087-.054.04227-.10783.06368-.16165.00567-.00636.01509-.00878.01855-.01717.00109.05214.00276.10418.0072.15617A1.78517,1.78517,0,0,0,3.089,3.22049Zm-.08154-.59534.0001.00163-.00049-.00059Zm-.07434-.081c.01717-.01722.03483-.03384.05239-.05061-.01648.044-.03838.08558-.05347.13a.22319.22319,0,0,1-.04292.00839A.34536.34536,0,0,1,2.83,2.6288.398.398,0,0,0,2.93313,2.5441Zm-.10975.1721.00079-.00044a.45409.45409,0,0,0,.0733-.00217.87171.87171,0,0,0-.05061.54246.531.531,0,0,0,.05811.09476.49133.49133,0,0,0-.05964.06689l-.00252.00345c-.00335-.01805-.00676-.03586-.00863-.05293-.0072-.06378-.01075-.12781-.0145-.19184-.00715-.12184-.01426-.24363-.01914-.36557l-.0035-.091A.06367.06367,0,0,0,2.82338,2.71621ZM2.75057,1.53713c.02486-.0034.05387-.00656.08248-.012l-.01233.02313c-.02427.04558-.04943.09037-.076.13452l-.00035-.0001a.25411.25411,0,0,1-.04745-.0292.8932.8932,0,0,0-.10867-.06067c-.0185-.009-.03665-.0187-.055-.02812L2.55671,1.549c.00636,0,.01278.0001.01914,0A1.39845,1.39845,0,0,0,2.75057,1.53713Zm-.12682.89727a1.34287,1.34287,0,0,0,.06723.12687.06139.06139,0,0,0-.00395.02866c-.01618-.00617-.03241-.01243-.04893-.01805-.01115-.00385-.02279-.00572-.03438-.00858.00444-.04933.00858-.09866.00962-.14808Zm-.0076.90418C2.61092,3.27272,2.5976,3.208,2.588,3.1427a1.95448,1.95448,0,0,1,.01006-.493c.01756.00636.03581.01243.05056.0184l.01174.00449-.00316.00572c-.01115.024.01593.04222.03631.0405a.0565.0565,0,0,0,.02249-.0075c.00252.12682.00873.2535.01539.38012.00409.07666.00755.15331.01381.22982q.00437.05305.01139.10581a.29211.29211,0,0,0-.0512-.02634.24691.24691,0,0,0-.08766-.01406C2.61689,3.37064,2.61743,3.35461,2.61615,3.33858ZM2.12509,2.02241l.00109.03655c.00281.09678.02072.19174.03211.28773v.00015c-.00715-.0145-.01139-.03034-.01978-.0443a.70936.70936,0,0,0-.0841-.11424.56355.56355,0,0,0-.04168-.0403A.42448.42448,0,0,0,2.12509,2.02241Zm-.19968.64042a.20328.20328,0,0,1-.09106-.0917.46436.46436,0,0,1-.02052-.26124c.00222-.01746.00128-.04538.01357-.059a.16794.16794,0,0,1,.05382-.02585c.023-.01036.0442-.02447.06635-.03695l.01948.02264a1.00169,1.00169,0,0,1,.08489.11513.62919.62919,0,0,1,.06062.12766.58585.58585,0,0,0,.02466.07542.0791.0791,0,0,0-.04272.02461c-.01278.01514.00079.03463.01475.04109l.01973.00774a.4055.4055,0,0,0-.06166.03413c-.00321-.02614-.01144-.05071-.01312-.0774a.0064.0064,0,0,0-.01243-.00232.42494.42494,0,0,0-.02619.114l-.01924.01381A.27827.27827,0,0,1,1.92541,2.66284Zm.15691.06186.01189-.00617A.29171.29171,0,0,0,2.19534,2.651c.01347.09012.031.17936.04745.269a1.01812,1.01812,0,0,1,.01879.14606c.002.05288-.00444.10561-.00612.15839a.72406.72406,0,0,0,.01184.09121c-.02077-.062-.04573-.12273-.06615-.17452A2.23835,2.23835,0,0,1,2.08233,2.72469Zm.336,1.185-.00276-.02323c.02274.005.04366.01583.0662.01889ZM2.407,3.81523c-.00607-.04943-.0112-.099-.01771-.14823-.01307-.09861-.03532-.195-.05214-.29291A2.54086,2.54086,0,0,1,2.319,3.0764,1.50451,1.50451,0,0,0,2.26859,2.8c-.02289-.09387-.043-.18868-.05791-.28418A1.61064,1.61064,0,0,1,2.189,2.21765c.003-.09427.00054-.18922.00755-.28324A.387.387,0,0,1,2.223,1.80187a.18642.18642,0,0,1,.06467-.07325l.02846-.0187L2.3227,1.706c.04666-.02792.08988-.06028.13466-.09032.02935.0182.05806.03749.08874.05293.04933.02481.09333.05618.14127.08282l.018.00853A.03673.03673,0,0,0,2.71,1.77859a.04136.04136,0,0,0,.033.02353,2.85158,2.85158,0,0,1-.00987.36073c-.00789.10023-.01352.20027-.01633.30055a.81312.81312,0,0,0-.06625-.102c-.00326-.00409-.01894-.01805-.0328-.03a1.99405,1.99405,0,0,0-.06758-.44178.01346.01346,0,0,0-.02634.00543,3.06766,3.06766,0,0,1,.00883.67638l-.00893.00271a.02054.02054,0,0,0-.00153.02826l.00819.00577c-.00276.02861-.00192.05732-.00538.08588a1.62051,1.62051,0,0,0-.01731.39585c.00789.06245.027.12288.03838.18463a1.08339,1.08339,0,0,1,.01539.20486c-.00084.11587-.0038.23189-.00335.34781-.0222-.00133-.04439-.00311-.06654-.00552C2.46363,3.81858,2.43531,3.81814,2.407,3.81523Zm.204-.06324c.00321-.07315.0111-.146.01139-.219.0001-.02836-.00207-.05663-.00276-.08489l.01509.00705a.51717.51717,0,0,1,.08129.04114.485.485,0,0,0,.04948.02974l.0113.01475-.00853.02471a.02448.02448,0,0,0,.01139.02822c-.02989.02383-.05929.04819-.08785.0733A.62368.62368,0,0,0,2.61107,3.752Zm.19642.07059a.57006.57006,0,0,0-.11627-.03887L2.68264,3.782a.66866.66866,0,0,1,.06072-.06615.89926.89926,0,0,0,.10171-.10339l.00661.0107a.04208.04208,0,0,0,.02713.02215L2.889,3.6596a1.03179,1.03179,0,0,1,.07675.12914.72959.72959,0,0,1,.05007.13595l.00345.014-.0075-.00414c-.00572-.00858-.0038-.01944-.01026-.02792-.00543-.00715-.01554.00074-.01253.00829l.001.0077A1.2604,1.2604,0,0,0,2.80749,3.82258Zm.03443.70647a.32135.32135,0,0,0,.17373-.09925l.01233.00592a.38779.38779,0,0,1,.11316.13082.28541.28541,0,0,1,.02629.08568c.00237.01761.00508.02535-.01061.03389a.144.144,0,0,1-.05273.012.52257.52257,0,0,1-.20762-.02634.08251.08251,0,0,1-.06279-.05964A.17308.17308,0,0,1,2.84192,4.52905Zm-.8216-.72127-.00138.00247a.24834.24834,0,0,0-.024.0771c.0077-.026.01248-.05253.01953-.07888Z"/></svg>