<svg xmlns="http://www.w3.org/2000/svg" role="img" viewBox="0.23 1.29 4.49 2.42"><path d="M4.34693 2.72086A.14158.14158 0 0 0 4.37357 2.68a.02525.02525 0 0 0-.03225-.029c-.01332.00576-.021.01988-.0319.02957l-.02335-.02509c.00288-.00725.00755-.01357.01009-.021a.01661.01661 0 0 0-.025-.01719l-.01.01143c-.025-.02549-.04835-.05342-.07309-.07851a2.19561 2.19561 0 0 0-.30187-.26018c-.02614-.01834-.04348-.03359-.06619-.05073.00532-.00884.01332-.0165.01784-.02564a.02038.02038 0 0 0-.029-.026.35593.35593 0 0 0-.02942.02052L3.75826 2.192l.00636-.01048a.01264.01264 0 0 0-.018-.01615l-.01118.00914a1.38594 1.38594 0 0 1-.11906-.11056l-.014-.024c-.01451-.02619-.029-.05242-.04268-.07906a1.95911 1.95911 0 0 1-.08388-.18609c-.0236-.06042-.04378-.12209-.06231-.1843l-.02529-.08606a.24187.24187 0 0 0-.03086-.08542.00556.00556 0 0 0-.01.00189.19524.19524 0 0 0 .00636.08989 1.08572 1.08572 0 0 0 .02067.09227 1.68463 1.68463 0 0 0 .053.16149q-.03175-.06529-.06057-.13193a.4818.4818 0 0 1-.04333-.12283c-.00537-.04194-.01043-.08144-.01978-.12313-.00755-.03389-.05575-.02022-.05615.01034a.26927.26927 0 0 0 .0077.06788.22723.22723 0 0 0 .03046.05928 1.3863 1.3863 0 0 1 .05958.138q.05232.121.11424.23747a3.02533 3.02533 0 0 0 .21083.3283 1.62756 1.62756 0 0 0-.13819.14544l-.019.02345-.00188-.00432a.532.532 0 0 0-.10658-.12969c-.00641-.00611-.01431.00363-.00889.00989a.59833.59833 0 0 1 .08174.16815l-.02445.03026-.00462-.00487a.66448.66448 0 0 0-.71439-.11777.78091.78091 0 0 0-.2957.27608.92328.92328 0 0 1-.20472.21426.23815.23815 0 0 0-.00258-.03125.0192.0192 0 0 0-.03511-.00263.23711.23711 0 0 0-.01918.073l-.01039.00716a.37686.37686 0 0 0-.01332-.0567.00774.00774 0 0 0-.01411-.0011.35531.35531 0 0 0-.01362.04378.33223.33223 0 0 0-.0081-.03747.01878.01878 0 0 0-.03442-.00261.40526.40526 0 0 0-.024.09262.6544.6544 0 0 0-.00954-.06087c-.00527-.02544-.04576-.02166-.04959.00268-.00224.01441-.0004.02942-.00184.044a2.50181 2.50181 0 0 0-.64269.01719c-.0233.005-.0475.01034-.0718.0165a1.08382 1.08382 0 0 1-.3842-.04556c-.08114-.02321-.16114-.05163-.24045-.0803a.50712.50712 0 0 1-.18609-.0965c-.00358-.00343-.00909.00154-.00651.00557a.336.336 0 0 0 .16805.126 2.48253 2.48253 0 0 0 .248.0886 1.11351 1.11351 0 0 0 .24656.04452c-.02658.00442-.05317.0086-.0799.012a.98284.98284 0 0 1-.20333-.02668.77033.77033 0 0 1-.41794-.20177c-.00859-.00928-.01982.00384-.01535.01313a.21245.21245 0 0 0 .0729.09088.51468.51468 0 0 0 .10211.05809 1.44778 1.44778 0 0 0 .25069.07667l.0248.00552a1.13864 1.13864 0 0 1-.09292-.0007.92457.92457 0 0 1-.28517-.05714C.40349 2.924.33989 2.874.35122 2.77955.35177 2.77517.347 2.7709.34292 2.77383c-.05332.03737-.03836.10763-.00457.15647a.22163.22163 0 0 0 .02007.22917.23668.23668 0 0 0 .05088.04542l.02738.017a.21669.21669 0 0 1-.10649.01257.00355.00355 0 0 0-.00229.00661.141.141 0 0 0 .13645.01446l.00229.00686c.0088.03155-.008.06206.02465.08184.00735.00447.01545-.0075.0085-.01252-.02291-.0167-.01366-.0565-.01789-.086A.1472.1472 0 0 0 .53512 3.18a.00922.00922 0 0 0-.01506-.01024.21693.21693 0 0 1-.05267.03846.20366.20366 0 0 0-.03871-.05585.19593.19593 0 0 1-.07051-.105.73614.73614 0 0 1-.00745-.10107.1533.1533 0 0 0 .01888.01848.60617.60617 0 0 0 .2874.10128 1.07952 1.07952 0 0 0 .05928.00691L.716 3.0755a.208.208 0 0 1 .00681.06181.07908.07908 0 0 0 .00229.05053.01508.01508 0 0 0 .0209.00453c.03593-.02773.0081-.09337-.021-.11866a1.33249 1.33249 0 0 0 .27613-.00656l.05476-.00785a.183.183 0 0 0-.03911.06917.49752.49752 0 0 0-.00368.15175c.00015.00636.01078.0073.01128.00084A.41384.41384 0 0 1 1.0752 3.133a.19441.19441 0 0 1 .08691-.08388.55391.55391 0 0 1 .05386-.025 1.05338 1.05338 0 0 0 .08417-.02832c.04273-.01193.08631-.021.1284-.02877a3.20159 3.20159 0 0 1 .5688-.04562c-.00576.06842-.00765.13744-.0087.206a99.86635 99.86635 0 0 0-.25784.02559c-.12611.01272-.25262.0087-.37809.02181a.01066.01066 0 0 0-.00417.02.35814.35814 0 0 0 .1761.03349 1.16317 1.16317 0 0 0 .1845-.02117c.09252-.01759.18549-.03682.27846-.055l-.00045.01058a5.19103 5.19103 0 0 1-.0075.15732c-.00119.01993-.00472.04248-.00457.0641l-.00537.0002c-.16527.02927-.32522.07871-.49243.099a1.73055 1.73055 0 0 1-.24323.01337.28953.28953 0 0 1-.12547-.02216.1371.1371 0 0 1-.07444-.08616.00841.00841 0 0 0-.0168.00089.251.251 0 0 0 .00522.04969.65432.65432 0 0 0-.06167-.02271c-.02619-.00835-.05317-.013-.0795-.02067-.02304-.00669-.0449-.01777-.06839-.02313a.085.085 0 0 0-.06589.00924.46828.46828 0 0 0 .03578-.10832c.00169-.00621-.0076-.00775-.00959-.002a.29243.29243 0 0 1-.10589.148.10269.10269 0 0 1-.02321.00229l-.01666-.00231.00046.00115.00377.0115.02852.00611a.13708.13708 0 0 0 .0959-.02375c.06251-.033.13247.02221.18942.04626a.52312.52312 0 0 0 .10654.03349.2248.2248 0 0 0 .0804.04989.56363.56363 0 0 0 .26067.0087 3.66 3.66 0 0 0 .52358-.1067c.02544-.00686.05063-.00114.07548-.00557l.0008.00268c.00527.00631.0161.01168.0238.00517l.00974-.01034.00482-.00035a.04128.04128 0 0 0 .01756.02171.02706.02706 0 0 0 .02793.00214.03744.03744 0 0 0 .02507-.02792l.0001-.00114.005-.00035a.06659.06659 0 0 0 .01093.01784.02564.02564 0 0 0 .03579-.00187c.00492-.00477.00343-.01376.00651-.01988.01491.00114.02872-.00547.044-.00323l.03374.00467a.10916.10916 0 0 0 .02748.04273.01827.01827 0 0 0 .02817-.00537.10459.10459 0 0 0 .002-.02942c.059.00855.118.01744.17724.02455.18127.02166.36313.04.54515.0482.00084.00557-.00209.01193 0 .01714a.02722.02722 0 0 0 .0401.01436c.00989-.00681.00974-.02221.016-.03245.01058.00035.02117-.00114.03175-.00084l.00015.01565c.00124.05058.073.04348.07627-.00412l.0007-.01362.01174-.00037.00144.01739a.02957.02957 0 0 0 .059-.00318l-.00119-.0158a3.18976 3.18976 0 0 0 .3202-.0087.00433.00433 0 0 0-.0005-.00865c-.10763-.00159-.21486-.01138-.32234-.01779-.00263-.03921-.00512-.07851-.00889-.11757L3.241 3.33155a.46672.46672 0 0 0 .083-.00255c.004-.001.00258-.00711-.00129-.00691-.02743.00129-.055-.001-.08258-.00109-.00055-.00994-.0008-.019-.00229-.02892l.0153.00234A.00432.00432 0 0 0 3.2549 3.286l-.02221-.00492a.06111.06111 0 0 0-.023-.04139l-.01024.0006a.05369.05369 0 0 0-.01719.02962l-.00114-.00025-.003-.02316a.02783.02783 0 0 0-.05481-.00407l-.00231.0132-.00363-.02629c-.00512-.02629-.03955-.017-.04591.00248l-.00273.01287c-.11056-.02653-.22072-.0553-.33282-.07384l.02042-.00422a.608.608 0 0 0 .13352-.05217c.03265-.0163.06326-.03662.0965-.05143.01277.0082.0247.01749.03722.02619-.00229.00626-.0084.01138-.00974.01779-.00462.02211.0238.04621.04348.02981.00492-.00412.00681-.01133.01123-.016l.03314.0233-.00109.00268a.028.028 0 0 0 .04517.02648 3.40575 3.40575 0 0 0 .47349.27315c-.00119.0083-.0073.0162-.002.02445a.03248.03248 0 0 0 .01545.01386.04073.04073 0 0 0 .0466-.00884l.00089-.00109.035.0163L3.71 3.4995c-.02489.04283.04293.07553.06837.03409l.00661-.01c.01193.00462.02286.01183.03488.01625a1.42626 1.42626 0 0 0 .385.09073.51383.51383 0 0 0 .34992-.07493.00431.00431 0 0 0-.00363-.0077.90973.90973 0 0 1-.2169.03533 1.01675 1.01675 0 0 1-.21262-.02753 2.0651 2.0651 0 0 1-.29511-.09531c.05034-.08055.1034-.15931.15667-.23787a1.44171 1.44171 0 0 0 .30425.11916c.00661.00174.01039-.009.00393-.01143a1.48765 1.48765 0 0 1-.28264-.14649c.02137-.031.04-.06365.062-.09416.05148-.07116.10509-.14057.15871-.21009l.00447-.00571a1.43591 1.43591 0 0 1 .15086.19528 1.11107 1.11107 0 0 1 .10967.21844c.013.03662.02807.07379.03786.11136.00979.03781.00949.07692.01858.11483.00318.01332.02266.01073.02534-.00134a.20381.20381 0 0 0 .00447-.047c.05078-.00065.11081-.033.1114-.0889a.63482.63482 0 0 0-.0413-.20351 1.31139 1.31139 0 0 0-.30386-.45214zM4.27766 2.71c-.0077.009-.018.01491-.02549.0236l-.0083.00979c.009-.01491.01476-.0316.02261-.04716zm-.38828-.36259a3.0145 3.0145 0 0 1 .3452.3117.894.894 0 0 0-.06932.0794A5.294 5.294 0 0 1 3.77073 2.31c.00939-.01153.0165-.0241.02509-.036.03136.02425.06187.04959.09357.07344zm-.14554-.11434l-.01824.01272.01108-.01829zm-.1027-.09707a.69292.69292 0 0 0 .06375.06355l-.01143.00945c-.01739-.02434-.03563-.04814-.05232-.073zM2.176 3.376c.0002-.02514-.00273-.05138-.00263-.072.00035-.05277.00109-.10554.00119-.15831v-.00412l.00065.00755c.00606.05744.01516.11454.02668.17118.00318.01565.008.03533.01247.05411-.01274-.00077-.02551.00206-.03836.00159zm.92224.08487c.00129-.00561.00611-.00875.00711-.01441 0 .005.00015.00989.00015.01481zm.08686.00477c.0008-.0156.002-.03106.00234-.04671l.004.04706zm-.1209-.19975l-.006.02832c-.01158-.00348-.02355-.00522-.03513-.0088-.04581-.01416-.091-.03-.13605-.04636.05886.01017.11809.01812.17722.02681zm-.27339.00472a1.18988 1.18988 0 0 0 .25928.06162c-.00333.01873-.0075.03722-.01178.05545-.00492.021-.014.04492-.01988.06877-.01347-.00114-.027-.001-.04045-.00224q-.25923-.02355-.51762-.05371c-.05431-.00641-.10912-.01183-.16388-.01744-.00422-.02221-.01009-.04452-.01431-.0641a1.64811 1.64811 0 0 1-.02763-.17411l-.00169-.02995c.04437.01014.08949.01535.13406.02494.04517.00979.089.02385.13322.03727.09143.02768.18058.06197.27071.09347zm.12432-.3c-.02738-.01108-.05575-.01963-.08368-.02917a.53966.53966 0 0 1-.09237-.02892c-.01029-.00581-.02142.01034-.01178.01734a.34222.34222 0 0 0 .08581.05516 1.01963 1.01963 0 0 1 .10748.04025l.02991.016a1.03826 1.03826 0 0 0-.16214.056.44968.44968 0 0 1-.14514.02484c-.026.0001-.05391.0008-.08154.0002a.89887.89887 0 0 0-.06614-.01655.57476.57476 0 0 0-.24393-.01093c-.00323-.04273-.00661-.08547-.00745-.1283-.0005-.02743-.00542-.05565-.007-.08437a.66882.66882 0 0 0 .22867-.17635 1.04719 1.04719 0 0 1 .277-.27806A.5571.5571 0 0 1 3.106 2.376a.63919.63919 0 0 1 .29918.15439c-.02077.02614-.04273.05128-.063.07786-.06137.0806-.12005.16323-.1768.24716q-.04226.06261-.08288.12636c-.01267.01988-.02226.043-.03543.06455a.839.839 0 0 0-.1319-.07572zm.1844.10609c.01272-.02037.02827-.03831.04065-.05784q.0404-.06388.08263-.12651l.02236-.03265-.01073.017a2.80334 2.80334 0 0 0-.07712.13381.873.873 0 0 0-.03359.0806zm.65059.35821L3.72471 3.422c.044-.05.08721-.10132.1284-.15255-.03587.05425-.06931.1099-.10295.16546zm.036-.21521c-.04427.05486-.09073.10932-.134.16547-.08124-.03866-.16278-.07642-.24115-.12244-.07662-.045-.1527-.09088-.22887-.13665.01749-.026.03652-.05108.05178-.07732.02475-.04244.05024-.08442.076-.12621.05193-.08442.10743-.16641.16552-.24671.00855-.01178.01819-.02266.02688-.03429.03021.03916.0639.07608.09208.11692a.86368.86368 0 0 0 .09764.21333.69715.69715 0 0 0 .1684.15374c-.02478.03135-.04908.06305-.07422.09416zM4.102 2.811c-.05153.06728-.10172.1356-.15339.20273-.01814.02355-.03692.04661-.05521.07a.77591.77591 0 0 1-.17466-.18683 2.49667 2.49667 0 0 1-.13859-.35454c.02738-.03448.05337-.07006.08149-.104.027-.0327.05764-.06524.08676-.09868a3.5902 3.5902 0 0 0 .30206.3442c.02907.02892.05689.05888.08567.08805-.01052.01383-.02364.02531-.03413.03907zm.47533.607l-.00363-.03359a.51684.51684 0 0 0-.02708-.12815.93073.93073 0 0 0-.12139-.22972 2.10081 2.10081 0 0 0-.16631-.18425l.05208-.06622.009-.01391a1.581 1.581 0 0 1 .22276.274.89974.89974 0 0 1 .09237.216.301.301 0 0 1 .01993.12035c-.00512.02349-.0489.03522-.07777.04549z"/><path d="M3.27338 1.91832a.67353.67353 0 0 0-.04219-.19126.69537.69537 0 0 1-.00974-.2482c.0003-.00393-.00537-.00532-.00616-.00124a.78965.78965 0 0 0-.01774.26311.451.451 0 0 1-.0007.25347.32165.32165 0 0 0-.04447.21088c.02022.077.103.066.16408.05993.00934-.00089.01143-.016.00129-.017-.03329-.00338-.08368-.01689-.09685-.05163a.1815.1815 0 0 1 .0021-.09947.79091.79091 0 0 0 .05038-.17859zm.1127.16025l.00253-.01451.0003-.00427.00258-.00379a.01271.01271 0 0 0-.00373-.01958.04241.04241 0 0 0-.05441.018.05952.05952 0 0 0 .01406.0721.0178.0178 0 0 0 .03246-.01052c.00094-.01258.00437-.02491.00621-.03743zM.87132 2.6914a1.67037 1.67037 0 0 1 .18748.1696.18808.18808 0 0 0 .18231.04944l-.0008-.00417a.20291.20291 0 0 1-.14018-.08109c-.0314-.03056-.05958-.06425-.09133-.09451a.67409.67409 0 0 0-.2165-.146.30683.30683 0 0 0-.40756.12388c-.00452.00969.00914.02.016.01093a.34458.34458 0 0 1 .47058-.02808zm-.30673.66077a.05023.05023 0 0 0-.04159.00944.01279.01279 0 0 0-.00243.01759.02929.02929 0 0 0 .0244.01342.06393.06393 0 0 0 .02822-.00735.13964.13964 0 0 0 .04184-.03543l-.00314-.00423a.10451.10451 0 0 1-.0473.00656z"/></svg>