<svg xmlns="http://www.w3.org/2000/svg" role="img" viewBox="13.09 3.46 73.70 92.95"><style>svg {enable-background:new 0 0 100 100}</style><path d="M84.69 80.23c-7.15-3.55-6.61-10.29-5.92-18.82.09-1.11.18-2.26.25-3.42v-.03c.3-4.7.33-9.74-1.19-14.66-.26-.85-.4-1.4-.46-1.76.12.08.23.16.33.23.97.68 2.17 1.52 3.19.86 1.11-.71 1.23-2.8.43-7.21-3.23-17.74-19.1-23.31-25.34-24.84.94-.53 1.44-1.14 1.52-1.83.06-.55-.12-1.35-1.36-2.06-4.02-2.28-16.9-2.4-27.18 5.5-7.07 5.44-11.86 15.29-13.48 27.74-1.6 12.28.3 23.33 3.07 26.92.66.85 1.75 1.33 2.9 1.27l.36-.02v4.72c-2.48.15-4.25 1.06-5.25 2.71-2.52 4.18.59 11.94 3.64 17.72.46.88 1.37 1.43 2.36 1.43.99 0 1.9-.55 2.36-1.43 3.05-5.78 6.16-13.56 3.64-17.73-1-1.65-2.77-2.55-5.25-2.7v-4.79l1.11-.05c1.26-.06 2.39-.77 2.95-1.84 1.56-2.99 2.15-6.75 2.72-10.4 1.01-6.42 1.96-12.49 7.96-13.73 1.62-.33 2.85-.16 3.78.53 2.37 1.77 2.81 6.94 3.33 12.93.2 2.3.68 6.84.88 8.14.98 6.43 2.8 13.11 7.47 18.21 4.34 4.74 9.21 7.18 14.48 7.24h.2c9.29 0 16.41-7.32 16.71-7.63.17-.17.24-.41.2-.65s-.2-.44-.41-.55zm-57.41-3.94c1.66 2.75.32 8.67-3.68 16.25-.41.78-1.65.79-2.07 0-4-7.58-5.34-13.5-3.68-16.25.82-1.35 2.36-2.01 4.71-2.02h.01c2.35.01 3.89.67 4.71 2.02zm15.45-34.96c-.89-.66-1.94-.99-3.19-.99-.56 0-1.15.07-1.79.2-7.02 1.45-8.1 8.32-9.14 14.96-.55 3.52-1.12 7.16-2.57 9.93-.32.61-.97 1-1.69 1.04l-2.97.15c-.68.03-1.28-.22-1.64-.69-2.52-3.28-4.3-14.08-2.77-25.81.91-6.98 3.8-19.74 12.91-26.74 9.62-7.4 21.9-7.45 25.52-5.39.52.3.62.52.61.58-.02.2-.58.86-2.87 1.52-.34.1-.57.42-.54.78.03.35.3.64.65.69.23.03 22.75 3.13 26.58 24.12.92 5.07.27 5.66.25 5.68-.27.06-1.16-.56-1.53-.82-.83-.58-1.61-1.12-2.29-.62-.65.47-.62 1.4.13 3.83 1.42 4.62 1.42 9.43 1.14 13.94-3.74 4.01-5.66 7.92-6.56 10.24-1.15-2.96-3.42-7.96-5.92-8.7-.78-.23-1.55-.07-2.22.47-2.74 2.21-3.79 8.21-4.16 11.39-2.05-2.68-6.46-7.72-11.29-8.62-.33-2.45-.54-4.86-.74-7.12-.55-6.63-1-11.85-3.91-14.02zm25.45 46.22h-.19c-4.83-.06-9.33-2.33-13.38-6.75-4.24-4.64-6.04-10.75-6.99-16.76 5.65 1.45 10.93 9.44 10.99 9.52.14.22.38.34.63.34.06 0 .13-.01.19-.03.31-.08.54-.36.56-.68.15-2.71 1.14-10.19 3.79-12.33.29-.23.54-.29.85-.2 1.97.58 4.52 6.33 5.67 9.81.1.32.38.52.75.51.34-.02.62-.25.7-.58.01-.05 1.18-4.91 5.61-10.25l-.09 1.14c-.65 8.04-1.26 15.64 5.82 19.78-2 1.79-7.88 6.48-14.91 6.48z"/></svg>