<svg xmlns="http://www.w3.org/2000/svg" role="img" viewBox="4.97 3.72 90.06 92.56"><path d="M93.1195145,64.0734787c0.0118942-0.1687012-0.0328751-0.3513985-0.1563034-0.5365982 c-0.0372543-0.0559692-0.0671692-0.1205826-0.1032867-0.177803c-0.0959015-0.2008972-0.2052841-0.388031-0.3267746-0.5624237 c-1.277565-2.3647003-1.9071045-5.5170631-4.0210266-7.0627022c-0.2965698-0.2168236-0.678566-0.3082848-1.1109619-0.3146553 c-0.9198532-2.2260284-1.8682632-4.4312401-2.8924332-6.5918579c0.0937424-0.443203-0.1306458-0.7694626-0.4631042-0.929863 c-0.9083633-1.862114-1.8662109-3.695446-2.9317932-5.4688301c0.0645599-0.182354,0.1199646-0.3659592,0.1865692-0.5480881 c0.2949753-0.8063202-0.5325089-1.2705688-1.1822968-1.0729713c-0.9872513-1.5220909-2.0564117-2.9991302-3.2300034-4.4197502 c-0.0487442-0.2718811-0.2362747-0.4691391-0.4777298-0.58358c-1.0382767-1.2108459-2.1528778-2.3566246-3.3039474-3.4696388 c0.2327499-0.715313-0.4559402-1.1375847-1.0756989-1.0197296c-0.980484-0.9190559-1.9722366-1.8274193-2.9611969-2.7349854 c-0.0521011-0.4639072-0.467659-0.8105297-0.9105759-0.8410168c-0.4981537-0.462656-0.9934006-0.9272461-1.4804001-1.3977528 c-2.3132248-2.2346725-4.1796608-4.6672878-5.885643-7.2575703c0.0698471-0.4500294-0.2034569-0.7744694-0.5810204-0.8941422 c-0.679142-1.0668278-1.3384285-2.1575451-1.992939-3.2739725c-2.291893-3.9094286-6.2315254-7.3465304-10.6462669-6.6811562 c-0.0761642-0.1014729-0.1788292-0.1930485-0.3221092-0.2640343c-1.4912033-0.7395444-2.9960022-1.2022009-4.5037575-1.4118576 c-0.0880508-0.3800678-0.3650513-0.7263489-0.8513145-0.7770853c-3.820694-0.3981547-7.0332947-0.3763132-10.573122,1.1887774 c-4.2884712,1.8959012-7.680582,6.2710567-10.9129753,9.4938374c-3.586298,3.5756607-7.2497225,7.090004-10.7391529,10.7600842 c-2.2104435,2.32477-3.5229335,5.032795-2.5907955,8.1773109c0.2020922,0.6817551,1.0452709,0.8980103,1.5575829,0.4113503 c4.644536-4.4126968,8.9170818-9.1303806,12.8501701-14.1875191c2.8770123-3.6992016,5.3778248-8.08323,9.1995449-10.7812424 c-3.7730312,4.1945066-5.8055,11.0160408-7.9766388,15.5136013L10.6763878,51.2859917 c-1.0912294,2.2606087-3.6020522,5.5052338-3.6020522,8.1084824c0,1.8916931,2.6751466,1.8843002,3.5778213,2.9183655 c0.5708981,0.65411,1.5493355,0.0919151,1.5908575-0.6588898c0.5328445-9.640358,5.9472418-17.6973114,10.3815527-25.9609642 c1.140316-2.1251259,2.109539-4.4296455,3.0818901-6.7519131c-1.8956165,5.9705067-3.7615986,11.9505672-5.6437912,17.925169 c-2.1640301,6.8694267-4.3281164,13.7388535-6.4921455,20.6082764c-1.3318863,4.2277298-2.8367414,7.7190933,2.1932087,9.3920288 c0.4704475,0.1564178,1.0325298-0.1759872,1.1463451-0.6509247c2.2646484-9.4473114,4.7147827-18.8453674,7.3507957-28.1960945 c2.0582924-7.3013687,3.751133-15.5575142,6.9028149-22.7792511c-0.56703,2.810976-0.9717255,5.5401592-1.4307976,7.7437744 c-2.9055653,13.946804-5.0377998,28.0492325-6.5677967,42.2104683c-0.0435696,0.4032745,0.3162498,0.8009796,0.684145,0.8985825 c1.4967213,0.3970184,2.9934425,0.7941437,4.4901657,1.1912766c0.5838089,0.1548309,1.1814957-0.2882614,1.1796188-0.8986893 c-0.0185986-6.214859,0.2412815-12.4084473,0.7685528-18.5829239c1.1269493,12.0702438,2.5790234,24.1055603,4.3692417,36.0993576 c0.0805397,0.5395584,0.6950645,0.7245255,1.1464005,0.6509247c2.9504433-0.4811935,3.2312012-3.0060654,2.9260406-5.6084137 c-0.6935272-5.9143066-1.7273674-11.7956238-2.439949-17.7117538c-1.4219818-11.806778-2.3304024-23.6718025-2.8574448-35.55093 c0.4541817-2.2292099,0.9369164-4.4527378,1.4525261-6.6683006c0.6908569-2.9684162,1.3064613-6.4841251,2.6375504-9.4856453 c-0.9593277,7.5616474-1.0585251,15.1285286-0.7760048,22.7379532c0.2636909,7.1034279,0.8703651,14.1969604,1.377388,21.2859421 c0.258007,3.6070595,0.5159531,7.2140007,0.7739563,10.8210564c0.1638718,2.2908707-0.2581177,5.3799896,1.0899239,7.3698502 c1.3280716,1.960289,3.3409729-0.5242004,3.6919212-1.780777c0.67379-2.4128189-0.216938-6.0467224-0.3462257-8.5393982 l-0.6588326-12.7045631c-0.3764839-7.2596169-0.7529678-14.5194664-1.1294518-21.7790833 c-0.3408775-6.5728588-1.3573685-13.6990376,1.3538399-19.8524685c0.9176331,2.4074745,2.5086632,4.7205276,3.6606369,6.1375046 c0.1314507,0.1616516,0.2797356,0.2516346,0.4306908,0.2914486c-0.1337242,0.3091965-0.1316185,0.6819839,0.1383324,1.0065365 c1.965065,2.3625393,3.8977661,4.749876,5.8127213,7.1506386c0.2164841,0.6880131,0.4598122,1.372385,0.7492714,2.0484524 c0.2363319,0.5518417,0.7566071,0.5886993,1.1586876,0.351059c5.3198662,6.763401,10.4443512,13.6748047,15.3713455,20.7307968 c0.0718384,0.1601715,0.1331024,0.3239822,0.2097168,0.4823341c0.095726,0.1978264,0.2333145,0.3082886,0.3818283,0.3821182 c0.6634445,0.9547729,1.3123779,1.9203568,1.9702454,2.8793411c0.0559692,0.2694969,0.1066437,0.5398979,0.1707458,0.8081436 c0.1116028,0.4669762,0.4654465,0.6591148,0.8324356,0.6577492c0.4269333,0.6279488,0.8633652,1.2489586,1.2862625,1.8797493 c-0.2777405,0.3922386-0.4925156,0.8018837-0.6100311,1.2291603c-0.189064,0.6874428,0.4554367,1.7606392,0.6848831,2.3023643 c0.9180374,2.1681213,1.8360672,4.3362503,2.754158,6.5042572c0.0705872,0.1667709,0.1716614,0.2733612,0.2832031,0.3528824 c1.131897,1.6171875,3.2456436,2.5240707,5.5083008,2.0005569c3.6598969-0.846817,9.374054-3.8072739,9.6248322-8.161499 C93.3618774,65.3363113,93.2850342,64.6619568,93.1195145,64.0734787z M22.7116489,16.8564968 c-4.2571888,5.8385448-8.8871632,11.2691536-14.0337725,16.3153706c0.2163687-3.7691631,4.5820255-6.9478054,6.9416637-9.300333 c2.4150953-2.4078159,4.8302469-4.8158569,7.2453413-7.223671C22.8138618,16.7174835,22.7626133,16.7866478,22.7116489,16.8564968z M83.8274918,51.6563873c0.5906906,1.3664703,1.1653366,2.7381706,1.7229309,4.1061172 c-0.6815338,0.2205772-1.3851318,0.5221519-2.0464096,0.8310089C83.4251785,54.9285393,83.5310898,53.2858658,83.8274918,51.6563873 z M80.3930054,44.600853c0.7874908,1.3885384,1.4983139,2.8247414,2.1797256,4.275959 c-0.8298721,2.8157501-1.1272888,5.6856537-0.8746872,8.6009445c-0.2451553,0.1211548-0.4709625,0.2310448-0.6524658,0.3105621 c-0.8270264,0.3623199-1.9034119,0.8774185-2.9508438,1.515831C78.157135,54.2782974,78.9217606,49.3892937,80.3930054,44.600853z M48.5536766,9.9507809c0.3868942-0.0324211,0.7580299-0.0127411,1.1210899,0.0319662 c-2.4484253,0.8779888-4.4775352,2.7022209-5.5509644,5.06112c-0.1643219-0.7182722-0.2207451-1.4151573-0.1135864-2.0510683 c0.0951576-0.1623335,0.1410027-0.3405933,0.1364555-0.5246544C44.5924339,11.1508198,45.8800659,10.1752262,48.5536766,9.9507809z M10.5271931,59.942791c-0.8065481-0.5314789-1.4061699-1.1601105-0.6481962-2.7304344 c0.8931751-1.8501663,1.786294-3.7003365,2.6794128-5.5505066C11.5834417,54.3090096,10.8529406,57.0471802,10.5271931,59.942791z M23.4658108,44.022049c-2.9358234,10.1076775-5.5968647,20.2935104-8.0653133,30.5247269 c-2.780942-2.695282,1.8857193-12.6666756,2.6723042-15.1635628c1.6230507-5.1520119,3.2461014-10.3041382,4.8691521-15.4562645 s3.2461014-10.3042564,4.8691521-15.4562683c1.4417763-4.576849,2.7844696-9.1893063,6.2860737-12.5485973 c-0.2688713,0.5276127-0.5213585,1.0713787-0.7528572,1.6344833c-0.1268387,0.0688248-0.2446365,0.1684761-0.3411026,0.3131771 C27.9031372,25.52001,25.997509,35.3057518,23.4658108,44.022049z M33.6374779,64.1245575 c0.4805183,4.7437363,1.0597191,9.4771194,1.6835136,14.20401c0.2778015,2.1048813,2.632431,11.1928253,0.9491463,13.7652512 c-2.1441231-14.5687256-3.7911758-29.1971703-4.9441757-43.8777161c0.1540279-1.164093,0.3140869-2.3277283,0.4880238-3.4905701 c0.0539227-0.3606148,0.1190491-0.7192955,0.1755867-1.0794563C32.4014359,50.4821739,32.9470215,57.3081436,33.6374779,64.1245575z M39.7749252,38.7538872c0.596096,11.4946251,1.1921921,22.9890213,1.7882881,34.4836464 c0.0627365,1.209938,0.1255302,2.4198685,0.1882706,3.6298065c0.5430832,1.9633636,0.298954,2.3342133-0.7323799,1.1125565 l-0.6450119-9.0174103c-0.4265938-5.9648209-0.864109-11.9290695-1.2717628-17.8951416 c-0.2911644-4.2613945-3.0138626-35.7004013,3.0472527-36.6413002 C37.8901176,21.761425,39.3557816,30.6723633,39.7749252,38.7538872z M42.44524,11.8445196 c-0.716053,0.3028259-1.3742599,0.6766367-1.9895821,1.1014109c-0.4822807,0.2379827-0.8820839,0.5635605-1.2104492,0.9602365 c-5.8437767,5.2969408-6.6577225,16.341877-8.0194111,23.3106155c-0.6055374,3.0990105-1.1269493,6.2132683-1.5706654,9.3386726 c-0.1821842,0.1485672-0.3006077,0.3757439-0.2760353,0.6948357c0.0220699,0.2865601,0.0514755,0.572319,0.0739441,0.8588791 c-1.1978798,8.9711151-1.7676392,18.0266418-1.7883434,27.0745468c-1.8315125-0.4862061-2.541935-0.8907318-2.2483234-3.508316 c0.3854141-3.4356232,0.8319149-6.8641968,1.3011131-10.289238c0.8010311-5.846283,1.7566605-11.6704941,2.7949352-17.4790077 c1.038332-5.8087425,2.2302361-11.5892715,3.5042782-17.3506908c1.2708511-5.7470837,2.5166245-14.4443827,9.6683426-15.2748213 C42.5919876,11.4646797,42.5119591,11.6524954,42.44524,11.8445196z M39.5707283,10.2182274 c-0.2099953-0.1244526-0.4620857-0.1718893-0.6986465-0.0853195c-0.6916542,0.2527714-1.3833046,0.5056572-2.0750122,0.7585421 c-0.1341248,0.0489168-0.2502708,0.1242247-0.3524818,0.212615c-0.0116615,0.0055742-0.0224686,0.0044365-0.0341301,0.0105801 c-8.9193554,4.7080126-11.0821342,15.3433037-15.3952332,23.6376705c-0.9061451,1.7425537-1.8533554,3.4621315-2.7941399,5.179203 c1.2305851-2.5492172,2.4610538-5.0984344,3.691637-7.6475372C26.2692223,23.259285,31.849081,3.757535,45.0985451,9.0415077 c-0.0869141,0.043911-0.173027,0.074398-0.2601662,0.1219492c-0.2942352,0.1604004-0.5538902,0.3359299-0.7940369,0.519536 c-0.1466904-0.2103395-0.3800087-0.3584538-0.7232742-0.3422995C41.9111404,9.4066734,40.6707764,9.7171202,39.5707283,10.2182274z M45.2156029,17.8758869c0.5553131-3.3960352,3.2507095-6.1866474,6.7435532-6.5540876 c0.2092018-0.0219555,0.368351-0.1104593,0.5041199-0.2208052c0.8911858,0.6161165,1.6901703,1.4118576,2.3920021,2.274375 c-3.78088-0.239234-6.4759941,4.147069-7.4460678,7.9343214C46.7329712,20.4196434,45.8966179,19.1942348,45.2156029,17.8758869z M52.0942993,27.6590118c-1.0613098-1.3091335-2.1269989-2.6148548-3.2030449-3.9126129 c0.1555099-2.8867378,2.4371643-8.7382526,5.9389954-8.4861631C52.5401764,19.0745621,51.6302795,23.3769112,52.0942993,27.6590118z M54.5709953,30.7490368c-1.5067902-5.0540657-0.7370987-10.3561268,2.0576668-14.8626738 c0.7339134,1.1613607,1.4459839,2.2879133,2.1645966,3.3890963c-1.4447327,4.1315975-2.8183098,9.4206905-2.1885452,14.0796738 C55.924324,32.4882927,55.2576408,31.6112137,54.5709953,30.7490368z M59.8148117,37.4687576 c0.0010223-0.1489105-0.0248566-0.3036232-0.1164894-0.4644775c-2.5451202-4.467186-1.2110748-10.8266315,0.4002037-15.7865067 c0.8881111,1.2861538,1.8228111,2.5334034,2.8363991,3.7549438c-1.8308868,3.5116138-3.0872383,8.723465-2.5394325,13.265274 C60.2005119,37.982605,60.0103073,37.72369,59.8148117,37.4687576z M64.5401764,43.7478905 c-0.0229263-0.1725731-0.0804291-0.3458252-0.2255325-0.5055428c-3.5078011-3.8632431-2.2159576-12.0760441-0.0544281-16.7504978 c0.3583374,0.3908749,0.7161636,0.7818623,1.1003876,1.1672764c0.4999695,0.5015621,1.0056229,0.9943638,1.5131531,1.4837532 c-1.5187912,3.1251755-2.0976486,6.2640038-2.1323471,9.8115654c-0.0146713,1.502182-0.0815659,3.353035,0.0722961,5.1714668 C64.7212753,44.0008888,64.6327133,43.8727989,64.5401764,43.7478905z M68.5105743,48.1207695 c-0.2272873-0.2338867-0.6088943-0.3005486-0.951416-0.2010078c-0.1050034-0.1450424-0.2098312-0.2901993-0.3150024-0.4352417 l0.126442-0.4030457c-0.3848419-1.2866096-0.6051941-2.6037102-0.6610489-3.9516335 c-0.1234818-1.3815994-0.0898666-2.7894745-0.1043167-4.175396c-0.0316238-3.0337143,0.4693146-5.7770042,1.6846542-8.4607964 c0.8703079,0.8236122,1.7419815,1.6415367,2.6043854,2.4667435C69.1510391,37.6503181,68.0432587,43.0214272,68.5105743,48.1207695z M72.2320175,54.4928436c-0.1162643-0.1658592-0.2283707-0.3344498-0.3448029-0.5000801 c-2.7359543-6.0151024-1.6852798-13.4120255,0.4705048-19.6077728c0.8526764,0.8430634,1.6841431,1.7076302,2.4938736,2.5955162 C73.0535278,42.5596809,71.8339767,48.5967369,72.2320175,54.4928436z M74.5331268,57.8297272 c-1.2470779-6.3514862-0.1254196-13.0355988,1.7538147-19.2017708c0.569931,0.6852837,1.1278076,1.3839874,1.6557007,2.1164818 c0.4110641,0.570385,0.8054123,1.1525993,1.1850815,1.7447128c-1.9768982,5.7758675-2.9367371,11.6941566-2.8970947,17.8021965 C75.6712799,59.4660301,75.098053,58.6509514,74.5331268,57.8297272z M77.8817825,67.1430283l-1.1262131-2.6596756 c-0.2770004-0.65411-0.1353683-1.2668152,0.2392349-1.8303757c0.0864563-0.0819054,0.1555634-0.1772346,0.2026062-0.2834854 c0.1027222-0.1242256,0.2279739-0.2423058,0.3506622-0.3609581c0.1565857-0.070755,0.3041306-0.1737099,0.4193115-0.3260307 l0.0819092-0.1084137c1.2819443-1.0028954,3.0785904-1.763485,3.9370117-2.1764297 c0.1366272-0.0657501,0.2799606-0.1361656,0.4244308-0.2070389c0.5220413,0.2144356,1.1649475,0.0199089,1.2255249-0.5836945 c0.9455566-0.4243202,1.9443588-0.7816353,2.8329315-0.7698059c0.2893982,0.3085136,0.7343063,0.3708534,1.093956,0.2516327 c0.5066223,0.2651749,0.9324799,0.7525139,1.225975,1.5591774c0.1568756,0.4311447,0.3328018,0.8543282,0.524147,1.2701149 c-0.9152451-0.1789436-1.9101791-0.212841-2.9081268-0.1352577c-0.134407-0.0428886-0.2805862-0.0637054-0.4433746-0.0407257 c-0.5091858,0.0716667-1.0040894,0.1788254-1.4827271,0.3187485c-0.1653519,0.0337868-0.3321762,0.0657539-0.4938812,0.1038628 c-0.1834946,0.0432281-0.3126678,0.1317329-0.4180069,0.2359352C80.9682236,62.4393387,78.9430389,64.4872208,77.8817825,67.1430283 z M90.7390594,67.8764267c-1.1887741,2.1376419-4.5235519,3.6721344-6.7353058,4.4211197 c-1.9862213,0.6726532-4.6160965,0.0487976-4.8204575-2.5412521c-0.099144-1.2565842,0.6285706-2.5948334,1.2513428-3.6159363 c1.0674515-1.7502899,2.8794556-2.8344078,4.8138657-3.3473434c0.9715576-0.2026062,1.935257-0.3457146,2.943222-0.359478 C91.3825378,62.3899689,91.9711838,65.6608658,90.7390594,67.8764267z"/></svg>